<?xml version="1.0" encoding="UTF-8"?>
<svg xmlns="http://www.w3.org/2000/svg" xmlns:xlink="http://www.w3.org/1999/xlink" width="600pt" height="450pt" viewBox="0 0 600 450" version="1.1">
<defs>
<g>
<symbol overflow="visible" id="dQCfyWMv0-0">
<path style="stroke:none;" d="M 0.59375 2.125 L 0.59375 -8.46875 L 6.59375 -8.46875 L 6.59375 2.125 Z M 1.265625 1.453125 L 5.9375 1.453125 L 5.9375 -7.78125 L 1.265625 -7.78125 Z M 1.265625 1.453125 "/>
</symbol>
<symbol overflow="visible" id="dQCfyWMv0-1">
<path style="stroke:none;" d="M -0.03125 -8.75 L 7.359375 -8.75 L 7.359375 -7.75 L 4.265625 -7.75 L 4.265625 0 L 3.078125 0 L 3.078125 -7.75 L -0.03125 -7.75 Z M -0.03125 -8.75 "/>
</symbol>
<symbol overflow="visible" id="dQCfyWMv0-2">
<path style="stroke:none;" d="M 3.8125 -7.96875 C 3.207031 -7.96875 2.75 -7.664062 2.4375 -7.0625 C 2.132812 -6.46875 1.984375 -5.566406 1.984375 -4.359375 C 1.984375 -3.160156 2.132812 -2.257812 2.4375 -1.65625 C 2.75 -1.0625 3.207031 -0.765625 3.8125 -0.765625 C 4.425781 -0.765625 4.882812 -1.0625 5.1875 -1.65625 C 5.5 -2.257812 5.65625 -3.160156 5.65625 -4.359375 C 5.65625 -5.566406 5.5 -6.46875 5.1875 -7.0625 C 4.882812 -7.664062 4.425781 -7.96875 3.8125 -7.96875 Z M 3.8125 -8.90625 C 4.789062 -8.90625 5.539062 -8.515625 6.0625 -7.734375 C 6.582031 -6.960938 6.84375 -5.835938 6.84375 -4.359375 C 6.84375 -2.890625 6.582031 -1.765625 6.0625 -0.984375 C 5.539062 -0.210938 4.789062 0.171875 3.8125 0.171875 C 2.832031 0.171875 2.082031 -0.210938 1.5625 -0.984375 C 1.050781 -1.765625 0.796875 -2.890625 0.796875 -4.359375 C 0.796875 -5.835938 1.050781 -6.960938 1.5625 -7.734375 C 2.082031 -8.515625 2.832031 -8.90625 3.8125 -8.90625 Z M 3.8125 -8.90625 "/>
</symbol>
<symbol overflow="visible" id="dQCfyWMv1-0">
<path style="stroke:none;" d="M 0.59375 2.125 L 0.59375 -8.46875 L 6.59375 -8.46875 L 6.59375 2.125 Z M 1.265625 1.453125 L 5.9375 1.453125 L 5.9375 -7.78125 L 1.265625 -7.78125 Z M 1.265625 1.453125 "/>
</symbol>
<symbol overflow="visible" id="dQCfyWMv1-1">
<path style="stroke:none;" d="M 1.125 -6.5625 L 2.203125 -6.5625 L 2.203125 0 L 1.125 0 Z M 1.125 -9.125 L 2.203125 -9.125 L 2.203125 -7.75 L 1.125 -7.75 Z M 1.125 -9.125 "/>
</symbol>
<symbol overflow="visible" id="dQCfyWMv1-2">
<path style="stroke:none;" d="M 6.234375 -5.296875 C 6.503906 -5.785156 6.828125 -6.144531 7.203125 -6.375 C 7.578125 -6.601562 8.019531 -6.71875 8.53125 -6.71875 C 9.21875 -6.71875 9.742188 -6.476562 10.109375 -6 C 10.484375 -5.519531 10.671875 -4.84375 10.671875 -3.96875 L 10.671875 0 L 9.59375 0 L 9.59375 -3.921875 C 9.59375 -4.554688 9.476562 -5.023438 9.25 -5.328125 C 9.03125 -5.628906 8.691406 -5.78125 8.234375 -5.78125 C 7.671875 -5.78125 7.226562 -5.59375 6.90625 -5.21875 C 6.582031 -4.851562 6.421875 -4.347656 6.421875 -3.703125 L 6.421875 0 L 5.34375 0 L 5.34375 -3.921875 C 5.34375 -4.554688 5.226562 -5.023438 5 -5.328125 C 4.78125 -5.628906 4.4375 -5.78125 3.96875 -5.78125 C 3.414062 -5.78125 2.976562 -5.59375 2.65625 -5.21875 C 2.332031 -4.851562 2.171875 -4.347656 2.171875 -3.703125 L 2.171875 0 L 1.09375 0 L 1.09375 -6.5625 L 2.171875 -6.5625 L 2.171875 -5.546875 C 2.421875 -5.941406 2.71875 -6.234375 3.0625 -6.421875 C 3.40625 -6.617188 3.8125 -6.71875 4.28125 -6.71875 C 4.757812 -6.71875 5.164062 -6.597656 5.5 -6.359375 C 5.832031 -6.117188 6.078125 -5.765625 6.234375 -5.296875 Z M 6.234375 -5.296875 "/>
</symbol>
<symbol overflow="visible" id="dQCfyWMv1-3">
<path style="stroke:none;" d="M 1.296875 -8.75 L 5.9375 -8.75 L 5.9375 -7.75 L 2.375 -7.75 L 2.375 -5.609375 C 2.550781 -5.671875 2.722656 -5.710938 2.890625 -5.734375 C 3.066406 -5.765625 3.238281 -5.78125 3.40625 -5.78125 C 4.382812 -5.78125 5.160156 -5.507812 5.734375 -4.96875 C 6.304688 -4.4375 6.59375 -3.71875 6.59375 -2.8125 C 6.59375 -1.863281 6.296875 -1.128906 5.703125 -0.609375 C 5.117188 -0.0859375 4.296875 0.171875 3.234375 0.171875 C 2.859375 0.171875 2.476562 0.140625 2.09375 0.078125 C 1.71875 0.015625 1.328125 -0.078125 0.921875 -0.203125 L 0.921875 -1.390625 C 1.273438 -1.203125 1.640625 -1.0625 2.015625 -0.96875 C 2.390625 -0.875 2.785156 -0.828125 3.203125 -0.828125 C 3.878906 -0.828125 4.414062 -1.003906 4.8125 -1.359375 C 5.207031 -1.710938 5.40625 -2.195312 5.40625 -2.8125 C 5.40625 -3.414062 5.207031 -3.894531 4.8125 -4.25 C 4.414062 -4.601562 3.878906 -4.78125 3.203125 -4.78125 C 2.890625 -4.78125 2.570312 -4.742188 2.25 -4.671875 C 1.9375 -4.609375 1.617188 -4.503906 1.296875 -4.359375 Z M 1.296875 -8.75 "/>
</symbol>
<symbol overflow="visible" id="dQCfyWMv2-0">
<path style="stroke:none;" d="M 0.59375 2.125 L 0.59375 -8.46875 L 6.59375 -8.46875 L 6.59375 2.125 Z M 1.265625 1.453125 L 5.9375 1.453125 L 5.9375 -7.78125 L 1.265625 -7.78125 Z M 1.265625 1.453125 "/>
</symbol>
<symbol overflow="visible" id="dQCfyWMv2-1">
<path style="stroke:none;" d="M 6.75 -3.546875 L 6.75 -3.03125 L 1.78125 -3.03125 C 1.832031 -2.28125 2.054688 -1.710938 2.453125 -1.328125 C 2.859375 -0.941406 3.414062 -0.75 4.125 -0.75 C 4.539062 -0.75 4.941406 -0.796875 5.328125 -0.890625 C 5.722656 -0.992188 6.113281 -1.148438 6.5 -1.359375 L 6.5 -0.328125 C 6.101562 -0.171875 5.703125 -0.0507812 5.296875 0.03125 C 4.890625 0.125 4.476562 0.171875 4.0625 0.171875 C 3.019531 0.171875 2.191406 -0.128906 1.578125 -0.734375 C 0.960938 -1.347656 0.65625 -2.175781 0.65625 -3.21875 C 0.65625 -4.289062 0.945312 -5.140625 1.53125 -5.765625 C 2.113281 -6.398438 2.894531 -6.71875 3.875 -6.71875 C 4.757812 -6.71875 5.457031 -6.429688 5.96875 -5.859375 C 6.488281 -5.296875 6.75 -4.523438 6.75 -3.546875 Z M 5.671875 -3.875 C 5.660156 -4.457031 5.492188 -4.925781 5.171875 -5.28125 C 4.847656 -5.632812 4.421875 -5.8125 3.890625 -5.8125 C 3.285156 -5.8125 2.800781 -5.640625 2.4375 -5.296875 C 2.082031 -4.953125 1.878906 -4.472656 1.828125 -3.859375 Z M 5.671875 -3.875 "/>
</symbol>
<symbol overflow="visible" id="dQCfyWMv3-0">
<path style="stroke:none;" d="M 0.59375 2.125 L 0.59375 -8.46875 L 6.59375 -8.46875 L 6.59375 2.125 Z M 1.265625 1.453125 L 5.9375 1.453125 L 5.9375 -7.78125 L 1.265625 -7.78125 Z M 1.265625 1.453125 "/>
</symbol>
<symbol overflow="visible" id="dQCfyWMv3-1">
<path style="stroke:none;" d="M 3.8125 -7.96875 C 3.207031 -7.96875 2.75 -7.664062 2.4375 -7.0625 C 2.132812 -6.46875 1.984375 -5.566406 1.984375 -4.359375 C 1.984375 -3.160156 2.132812 -2.257812 2.4375 -1.65625 C 2.75 -1.0625 3.207031 -0.765625 3.8125 -0.765625 C 4.425781 -0.765625 4.882812 -1.0625 5.1875 -1.65625 C 5.5 -2.257812 5.65625 -3.160156 5.65625 -4.359375 C 5.65625 -5.566406 5.5 -6.46875 5.1875 -7.0625 C 4.882812 -7.664062 4.425781 -7.96875 3.8125 -7.96875 Z M 3.8125 -8.90625 C 4.789062 -8.90625 5.539062 -8.515625 6.0625 -7.734375 C 6.582031 -6.960938 6.84375 -5.835938 6.84375 -4.359375 C 6.84375 -2.890625 6.582031 -1.765625 6.0625 -0.984375 C 5.539062 -0.210938 4.789062 0.171875 3.8125 0.171875 C 2.832031 0.171875 2.082031 -0.210938 1.5625 -0.984375 C 1.050781 -1.765625 0.796875 -2.890625 0.796875 -4.359375 C 0.796875 -5.835938 1.050781 -6.960938 1.5625 -7.734375 C 2.082031 -8.515625 2.832031 -8.90625 3.8125 -8.90625 Z M 3.8125 -8.90625 "/>
</symbol>
<symbol overflow="visible" id="dQCfyWMv3-2">
<path style="stroke:none;" d="M 0.59375 -3.765625 L 3.75 -3.765625 L 3.75 -2.8125 L 0.59375 -2.8125 Z M 0.59375 -3.765625 "/>
</symbol>
<symbol overflow="visible" id="dQCfyWMv3-3">
<path style="stroke:none;" d="M 1.484375 -1 L 3.421875 -1 L 3.421875 -7.671875 L 1.3125 -7.25 L 1.3125 -8.328125 L 3.40625 -8.75 L 4.59375 -8.75 L 4.59375 -1 L 6.53125 -1 L 6.53125 0 L 1.484375 0 Z M 1.484375 -1 "/>
</symbol>
<symbol overflow="visible" id="dQCfyWMv3-4">
<path style="stroke:none;" d="M 1.578125 -4.578125 L 4.0625 -4.578125 L 4.0625 -3.921875 L 0.546875 -3.921875 L 0.546875 -4.5625 C 0.679688 -4.675781 0.875 -4.84375 1.125 -5.0625 C 2.46875 -6.257812 3.140625 -7.039062 3.140625 -7.40625 C 3.140625 -7.664062 3.035156 -7.875 2.828125 -8.03125 C 2.628906 -8.1875 2.363281 -8.265625 2.03125 -8.265625 C 1.820312 -8.265625 1.597656 -8.226562 1.359375 -8.15625 C 1.128906 -8.09375 0.875 -7.992188 0.59375 -7.859375 L 0.59375 -8.578125 C 0.882812 -8.691406 1.160156 -8.773438 1.421875 -8.828125 C 1.679688 -8.878906 1.925781 -8.90625 2.15625 -8.90625 C 2.71875 -8.90625 3.164062 -8.773438 3.5 -8.515625 C 3.84375 -8.265625 4.015625 -7.925781 4.015625 -7.5 C 4.015625 -6.957031 3.367188 -6.128906 2.078125 -5.015625 C 1.859375 -4.828125 1.691406 -4.679688 1.578125 -4.578125 Z M 1.578125 -4.578125 "/>
</symbol>
<symbol overflow="visible" id="dQCfyWMv4-0">
<path style="stroke:none;" d="M 0.59375 2.125 L 0.59375 -8.46875 L 6.59375 -8.46875 L 6.59375 2.125 Z M 1.265625 1.453125 L 5.9375 1.453125 L 5.9375 -7.78125 L 1.265625 -7.78125 Z M 1.265625 1.453125 "/>
</symbol>
<symbol overflow="visible" id="dQCfyWMv4-1">
<path style="stroke:none;" d="M 1.484375 -1 L 3.421875 -1 L 3.421875 -7.671875 L 1.3125 -7.25 L 1.3125 -8.328125 L 3.40625 -8.75 L 4.59375 -8.75 L 4.59375 -1 L 6.53125 -1 L 6.53125 0 L 1.484375 0 Z M 1.484375 -1 "/>
</symbol>
<symbol overflow="visible" id="dQCfyWMv4-2">
<path style="stroke:none;" d="M 3.8125 -7.96875 C 3.207031 -7.96875 2.75 -7.664062 2.4375 -7.0625 C 2.132812 -6.46875 1.984375 -5.566406 1.984375 -4.359375 C 1.984375 -3.160156 2.132812 -2.257812 2.4375 -1.65625 C 2.75 -1.0625 3.207031 -0.765625 3.8125 -0.765625 C 4.425781 -0.765625 4.882812 -1.0625 5.1875 -1.65625 C 5.5 -2.257812 5.65625 -3.160156 5.65625 -4.359375 C 5.65625 -5.566406 5.5 -6.46875 5.1875 -7.0625 C 4.882812 -7.664062 4.425781 -7.96875 3.8125 -7.96875 Z M 3.8125 -8.90625 C 4.789062 -8.90625 5.539062 -8.515625 6.0625 -7.734375 C 6.582031 -6.960938 6.84375 -5.835938 6.84375 -4.359375 C 6.84375 -2.890625 6.582031 -1.765625 6.0625 -0.984375 C 5.539062 -0.210938 4.789062 0.171875 3.8125 0.171875 C 2.832031 0.171875 2.082031 -0.210938 1.5625 -0.984375 C 1.050781 -1.765625 0.796875 -2.890625 0.796875 -4.359375 C 0.796875 -5.835938 1.050781 -6.960938 1.5625 -7.734375 C 2.082031 -8.515625 2.832031 -8.90625 3.8125 -8.90625 Z M 3.8125 -8.90625 "/>
</symbol>
<symbol overflow="visible" id="dQCfyWMv5-0">
<path style="stroke:none;" d="M 0.59375 2.125 L 0.59375 -8.46875 L 6.59375 -8.46875 L 6.59375 2.125 Z M 1.265625 1.453125 L 5.9375 1.453125 L 5.9375 -7.78125 L 1.265625 -7.78125 Z M 1.265625 1.453125 "/>
</symbol>
<symbol overflow="visible" id="dQCfyWMv5-1">
<path style="stroke:none;" d="M 3.8125 -7.96875 C 3.207031 -7.96875 2.75 -7.664062 2.4375 -7.0625 C 2.132812 -6.46875 1.984375 -5.566406 1.984375 -4.359375 C 1.984375 -3.160156 2.132812 -2.257812 2.4375 -1.65625 C 2.75 -1.0625 3.207031 -0.765625 3.8125 -0.765625 C 4.425781 -0.765625 4.882812 -1.0625 5.1875 -1.65625 C 5.5 -2.257812 5.65625 -3.160156 5.65625 -4.359375 C 5.65625 -5.566406 5.5 -6.46875 5.1875 -7.0625 C 4.882812 -7.664062 4.425781 -7.96875 3.8125 -7.96875 Z M 3.8125 -8.90625 C 4.789062 -8.90625 5.539062 -8.515625 6.0625 -7.734375 C 6.582031 -6.960938 6.84375 -5.835938 6.84375 -4.359375 C 6.84375 -2.890625 6.582031 -1.765625 6.0625 -0.984375 C 5.539062 -0.210938 4.789062 0.171875 3.8125 0.171875 C 2.832031 0.171875 2.082031 -0.210938 1.5625 -0.984375 C 1.050781 -1.765625 0.796875 -2.890625 0.796875 -4.359375 C 0.796875 -5.835938 1.050781 -6.960938 1.5625 -7.734375 C 2.082031 -8.515625 2.832031 -8.90625 3.8125 -8.90625 Z M 3.8125 -8.90625 "/>
</symbol>
<symbol overflow="visible" id="dQCfyWMv6-0">
<path style="stroke:none;" d="M 2.125 -0.59375 L -8.46875 -0.59375 L -8.46875 -6.59375 L 2.125 -6.59375 Z M 1.453125 -1.265625 L 1.453125 -5.9375 L -7.78125 -5.9375 L -7.78125 -1.265625 Z M 1.453125 -1.265625 "/>
</symbol>
<symbol overflow="visible" id="dQCfyWMv6-1">
<path style="stroke:none;" d="M -7.953125 -4.734375 C -7.953125 -3.867188 -7.628906 -3.179688 -6.984375 -2.671875 C -6.347656 -2.171875 -5.472656 -1.921875 -4.359375 -1.921875 C -3.265625 -1.921875 -2.394531 -2.171875 -1.75 -2.671875 C -1.113281 -3.179688 -0.796875 -3.867188 -0.796875 -4.734375 C -0.796875 -5.585938 -1.113281 -6.265625 -1.75 -6.765625 C -2.394531 -7.273438 -3.265625 -7.53125 -4.359375 -7.53125 C -5.472656 -7.53125 -6.347656 -7.273438 -6.984375 -6.765625 C -7.628906 -6.265625 -7.953125 -5.585938 -7.953125 -4.734375 Z M -8.90625 -4.734375 C -8.90625 -5.953125 -8.492188 -6.925781 -7.671875 -7.65625 C -6.847656 -8.394531 -5.742188 -8.765625 -4.359375 -8.765625 C -2.984375 -8.765625 -1.882812 -8.394531 -1.0625 -7.65625 C -0.238281 -6.925781 0.171875 -5.953125 0.171875 -4.734375 C 0.171875 -3.503906 -0.238281 -2.519531 -1.0625 -1.78125 C -1.882812 -1.039062 -2.984375 -0.671875 -4.359375 -0.671875 C -5.742188 -0.671875 -6.847656 -1.039062 -7.671875 -1.78125 C -8.492188 -2.519531 -8.90625 -3.503906 -8.90625 -4.734375 Z M -8.90625 -4.734375 "/>
</symbol>
<symbol overflow="visible" id="dQCfyWMv6-2">
<path style="stroke:none;" d="M -5.5625 -4.9375 C -5.625 -4.8125 -5.671875 -4.675781 -5.703125 -4.53125 C -5.742188 -4.394531 -5.765625 -4.238281 -5.765625 -4.0625 C -5.765625 -3.457031 -5.566406 -2.988281 -5.171875 -2.65625 C -4.773438 -2.332031 -4.203125 -2.171875 -3.453125 -2.171875 L 0 -2.171875 L 0 -1.09375 L -6.5625 -1.09375 L -6.5625 -2.171875 L -5.546875 -2.171875 C -5.941406 -2.398438 -6.234375 -2.695312 -6.421875 -3.0625 C -6.617188 -3.425781 -6.71875 -3.867188 -6.71875 -4.390625 C -6.71875 -4.460938 -6.710938 -4.539062 -6.703125 -4.625 C -6.691406 -4.71875 -6.675781 -4.816406 -6.65625 -4.921875 Z M -5.5625 -4.9375 "/>
</symbol>
<symbol overflow="visible" id="dQCfyWMv6-3">
<path style="stroke:none;" d="M -8.421875 -2.203125 L -6.5625 -2.203125 L -6.5625 -4.421875 L -5.71875 -4.421875 L -5.71875 -2.203125 L -2.15625 -2.203125 C -1.625 -2.203125 -1.28125 -2.273438 -1.125 -2.421875 C -0.976562 -2.566406 -0.90625 -2.863281 -0.90625 -3.3125 L -0.90625 -4.421875 L 0 -4.421875 L 0 -3.3125 C 0 -2.476562 -0.15625 -1.898438 -0.46875 -1.578125 C -0.78125 -1.265625 -1.34375 -1.109375 -2.15625 -1.109375 L -5.71875 -1.109375 L -5.71875 -0.328125 L -6.5625 -0.328125 L -6.5625 -1.109375 L -8.421875 -1.109375 Z M -8.421875 -2.203125 "/>
</symbol>
<symbol overflow="visible" id="dQCfyWMv6-4">
<path style="stroke:none;" d="M -3.546875 -6.75 L -3.03125 -6.75 L -3.03125 -1.78125 C -2.28125 -1.832031 -1.710938 -2.054688 -1.328125 -2.453125 C -0.941406 -2.859375 -0.75 -3.414062 -0.75 -4.125 C -0.75 -4.539062 -0.796875 -4.941406 -0.890625 -5.328125 C -0.992188 -5.722656 -1.148438 -6.113281 -1.359375 -6.5 L -0.328125 -6.5 C -0.171875 -6.101562 -0.0507812 -5.703125 0.03125 -5.296875 C 0.125 -4.890625 0.171875 -4.476562 0.171875 -4.0625 C 0.171875 -3.019531 -0.128906 -2.191406 -0.734375 -1.578125 C -1.347656 -0.960938 -2.175781 -0.65625 -3.21875 -0.65625 C -4.289062 -0.65625 -5.140625 -0.945312 -5.765625 -1.53125 C -6.398438 -2.113281 -6.71875 -2.894531 -6.71875 -3.875 C -6.71875 -4.757812 -6.429688 -5.457031 -5.859375 -5.96875 C -5.296875 -6.488281 -4.523438 -6.75 -3.546875 -6.75 Z M -3.875 -5.671875 C -4.457031 -5.660156 -4.925781 -5.492188 -5.28125 -5.171875 C -5.632812 -4.847656 -5.8125 -4.421875 -5.8125 -3.890625 C -5.8125 -3.285156 -5.640625 -2.800781 -5.296875 -2.4375 C -4.953125 -2.082031 -4.472656 -1.878906 -3.859375 -1.828125 Z M -3.875 -5.671875 "/>
</symbol>
<symbol overflow="visible" id="dQCfyWMv6-5">
<path style="stroke:none;" d="M -5.5625 -5.453125 L -9.125 -5.453125 L -9.125 -6.53125 L 0 -6.53125 L 0 -5.453125 L -0.984375 -5.453125 C -0.597656 -5.222656 -0.304688 -4.9375 -0.109375 -4.59375 C 0.078125 -4.25 0.171875 -3.832031 0.171875 -3.34375 C 0.171875 -2.550781 -0.144531 -1.90625 -0.78125 -1.40625 C -1.414062 -0.90625 -2.25 -0.65625 -3.28125 -0.65625 C -4.3125 -0.65625 -5.140625 -0.90625 -5.765625 -1.40625 C -6.398438 -1.90625 -6.71875 -2.550781 -6.71875 -3.34375 C -6.71875 -3.832031 -6.625 -4.25 -6.4375 -4.59375 C -6.25 -4.9375 -5.957031 -5.222656 -5.5625 -5.453125 Z M -3.28125 -1.78125 C -2.488281 -1.78125 -1.863281 -1.941406 -1.40625 -2.265625 C -0.957031 -2.585938 -0.734375 -3.035156 -0.734375 -3.609375 C -0.734375 -4.179688 -0.957031 -4.628906 -1.40625 -4.953125 C -1.863281 -5.285156 -2.488281 -5.453125 -3.28125 -5.453125 C -4.070312 -5.453125 -4.691406 -5.285156 -5.140625 -4.953125 C -5.585938 -4.628906 -5.8125 -4.179688 -5.8125 -3.609375 C -5.8125 -3.035156 -5.585938 -2.585938 -5.140625 -2.265625 C -4.691406 -1.941406 -4.070312 -1.78125 -3.28125 -1.78125 Z M -3.28125 -1.78125 "/>
</symbol>
<symbol overflow="visible" id="dQCfyWMv7-0">
<path style="stroke:none;" d="M 2.125 -0.59375 L -8.46875 -0.59375 L -8.46875 -6.59375 L 2.125 -6.59375 Z M 1.453125 -1.265625 L 1.453125 -5.9375 L -7.78125 -5.9375 L -7.78125 -1.265625 Z M 1.453125 -1.265625 "/>
</symbol>
<symbol overflow="visible" id="dQCfyWMv7-1">
<path style="stroke:none;" d="M -3.28125 -5.84375 C -4.070312 -5.84375 -4.691406 -5.675781 -5.140625 -5.34375 C -5.585938 -5.019531 -5.8125 -4.578125 -5.8125 -4.015625 C -5.8125 -3.441406 -5.585938 -2.988281 -5.140625 -2.65625 C -4.691406 -2.332031 -4.070312 -2.171875 -3.28125 -2.171875 C -2.488281 -2.171875 -1.863281 -2.332031 -1.40625 -2.65625 C -0.957031 -2.988281 -0.734375 -3.441406 -0.734375 -4.015625 C -0.734375 -4.578125 -0.957031 -5.019531 -1.40625 -5.34375 C -1.863281 -5.675781 -2.488281 -5.84375 -3.28125 -5.84375 Z M -5.5625 -2.171875 C -5.957031 -2.398438 -6.25 -2.6875 -6.4375 -3.03125 C -6.625 -3.375 -6.71875 -3.785156 -6.71875 -4.265625 C -6.71875 -5.066406 -6.398438 -5.71875 -5.765625 -6.21875 C -5.140625 -6.71875 -4.3125 -6.96875 -3.28125 -6.96875 C -2.25 -6.96875 -1.414062 -6.71875 -0.78125 -6.21875 C -0.144531 -5.71875 0.171875 -5.066406 0.171875 -4.265625 C 0.171875 -3.785156 0.078125 -3.375 -0.109375 -3.03125 C -0.304688 -2.6875 -0.597656 -2.398438 -0.984375 -2.171875 L 0 -2.171875 L 0 -1.09375 L -9.125 -1.09375 L -9.125 -2.171875 Z M -5.5625 -2.171875 "/>
</symbol>
<symbol overflow="visible" id="dQCfyWMv7-2">
<path style="stroke:none;" d="M -6.5625 -0.359375 L -6.5625 -1.5 L -1.0625 -3.546875 L -6.5625 -5.609375 L -6.5625 -6.75 L 0 -4.28125 L 0 -2.8125 Z M -6.5625 -0.359375 "/>
</symbol>
<symbol overflow="visible" id="dQCfyWMv7-3">
<path style="stroke:none;" d="M -8.75 -3.046875 L -8.75 -4.046875 L 1.109375 -1 L 1.109375 0 Z M -8.75 -3.046875 "/>
</symbol>
<symbol overflow="visible" id="dQCfyWMv7-4">
<path style="stroke:none;" d="M -7.78125 -2.359375 L -4.484375 -2.359375 L -4.484375 -3.84375 C -4.484375 -4.394531 -4.625 -4.820312 -4.90625 -5.125 C -5.195312 -5.425781 -5.609375 -5.578125 -6.140625 -5.578125 C -6.660156 -5.578125 -7.0625 -5.425781 -7.34375 -5.125 C -7.632812 -4.820312 -7.78125 -4.394531 -7.78125 -3.84375 Z M -8.75 -1.171875 L -8.75 -3.84375 C -8.75 -4.832031 -8.523438 -5.578125 -8.078125 -6.078125 C -7.640625 -6.578125 -6.992188 -6.828125 -6.140625 -6.828125 C -5.273438 -6.828125 -4.617188 -6.578125 -4.171875 -6.078125 C -3.734375 -5.578125 -3.515625 -4.832031 -3.515625 -3.84375 L -3.515625 -2.359375 L 0 -2.359375 L 0 -1.171875 Z M -8.75 -1.171875 "/>
</symbol>
<symbol overflow="visible" id="dQCfyWMv7-5">
<path style="stroke:none;" d="M -6.3125 -5.859375 L -5.296875 -5.859375 C -5.472656 -5.546875 -5.601562 -5.238281 -5.6875 -4.9375 C -5.769531 -4.632812 -5.8125 -4.328125 -5.8125 -4.015625 C -5.8125 -3.304688 -5.585938 -2.757812 -5.140625 -2.375 C -4.703125 -1.988281 -4.082031 -1.796875 -3.28125 -1.796875 C -2.476562 -1.796875 -1.851562 -1.988281 -1.40625 -2.375 C -0.96875 -2.757812 -0.75 -3.304688 -0.75 -4.015625 C -0.75 -4.328125 -0.789062 -4.632812 -0.875 -4.9375 C -0.957031 -5.238281 -1.082031 -5.546875 -1.25 -5.859375 L -0.25 -5.859375 C -0.113281 -5.554688 -0.0078125 -5.242188 0.0625 -4.921875 C 0.132812 -4.597656 0.171875 -4.253906 0.171875 -3.890625 C 0.171875 -2.898438 -0.132812 -2.113281 -0.75 -1.53125 C -1.375 -0.945312 -2.21875 -0.65625 -3.28125 -0.65625 C -4.34375 -0.65625 -5.179688 -0.945312 -5.796875 -1.53125 C -6.410156 -2.125 -6.71875 -2.9375 -6.71875 -3.96875 C -6.71875 -4.289062 -6.679688 -4.609375 -6.609375 -4.921875 C -6.546875 -5.242188 -6.445312 -5.554688 -6.3125 -5.859375 Z M -6.3125 -5.859375 "/>
</symbol>
<symbol overflow="visible" id="dQCfyWMv8-0">
<path style="stroke:none;" d="M 2.125 -0.59375 L -8.46875 -0.59375 L -8.46875 -6.59375 L 2.125 -6.59375 Z M 1.453125 -1.265625 L 1.453125 -5.9375 L -7.78125 -5.9375 L -7.78125 -1.265625 Z M 1.453125 -1.265625 "/>
</symbol>
<symbol overflow="visible" id="dQCfyWMv8-1">
<path style="stroke:none;" d="M -6.375 -5.3125 L -5.34375 -5.3125 C -5.5 -5.007812 -5.613281 -4.691406 -5.6875 -4.359375 C -5.769531 -4.035156 -5.8125 -3.695312 -5.8125 -3.34375 C -5.8125 -2.8125 -5.726562 -2.410156 -5.5625 -2.140625 C -5.40625 -1.867188 -5.160156 -1.734375 -4.828125 -1.734375 C -4.578125 -1.734375 -4.378906 -1.828125 -4.234375 -2.015625 C -4.097656 -2.210938 -3.96875 -2.601562 -3.84375 -3.1875 L -3.75 -3.546875 C -3.59375 -4.316406 -3.363281 -4.863281 -3.0625 -5.1875 C -2.757812 -5.507812 -2.34375 -5.671875 -1.8125 -5.671875 C -1.195312 -5.671875 -0.710938 -5.425781 -0.359375 -4.9375 C -0.00390625 -4.457031 0.171875 -3.796875 0.171875 -2.953125 C 0.171875 -2.597656 0.132812 -2.226562 0.0625 -1.84375 C 0 -1.46875 -0.0976562 -1.070312 -0.234375 -0.65625 L -1.359375 -0.65625 C -1.148438 -1.050781 -0.992188 -1.441406 -0.890625 -1.828125 C -0.785156 -2.210938 -0.734375 -2.597656 -0.734375 -2.984375 C -0.734375 -3.484375 -0.816406 -3.867188 -0.984375 -4.140625 C -1.160156 -4.421875 -1.410156 -4.5625 -1.734375 -4.5625 C -2.023438 -4.5625 -2.25 -4.460938 -2.40625 -4.265625 C -2.5625 -4.066406 -2.710938 -3.632812 -2.859375 -2.96875 L -2.9375 -2.59375 C -3.082031 -1.925781 -3.300781 -1.441406 -3.59375 -1.140625 C -3.882812 -0.847656 -4.28125 -0.703125 -4.78125 -0.703125 C -5.40625 -0.703125 -5.882812 -0.921875 -6.21875 -1.359375 C -6.550781 -1.796875 -6.71875 -2.414062 -6.71875 -3.21875 C -6.71875 -3.613281 -6.6875 -3.988281 -6.625 -4.34375 C -6.570312 -4.695312 -6.488281 -5.019531 -6.375 -5.3125 Z M -6.375 -5.3125 "/>
</symbol>
<symbol overflow="visible" id="dQCfyWMv8-2">
<path style="stroke:none;" d="M -3.546875 -6.75 L -3.03125 -6.75 L -3.03125 -1.78125 C -2.28125 -1.832031 -1.710938 -2.054688 -1.328125 -2.453125 C -0.941406 -2.859375 -0.75 -3.414062 -0.75 -4.125 C -0.75 -4.539062 -0.796875 -4.941406 -0.890625 -5.328125 C -0.992188 -5.722656 -1.148438 -6.113281 -1.359375 -6.5 L -0.328125 -6.5 C -0.171875 -6.101562 -0.0507812 -5.703125 0.03125 -5.296875 C 0.125 -4.890625 0.171875 -4.476562 0.171875 -4.0625 C 0.171875 -3.019531 -0.128906 -2.191406 -0.734375 -1.578125 C -1.347656 -0.960938 -2.175781 -0.65625 -3.21875 -0.65625 C -4.289062 -0.65625 -5.140625 -0.945312 -5.765625 -1.53125 C -6.398438 -2.113281 -6.71875 -2.894531 -6.71875 -3.875 C -6.71875 -4.757812 -6.429688 -5.457031 -5.859375 -5.96875 C -5.296875 -6.488281 -4.523438 -6.75 -3.546875 -6.75 Z M -3.875 -5.671875 C -4.457031 -5.660156 -4.925781 -5.492188 -5.28125 -5.171875 C -5.632812 -4.847656 -5.8125 -4.421875 -5.8125 -3.890625 C -5.8125 -3.285156 -5.640625 -2.800781 -5.296875 -2.4375 C -4.953125 -2.082031 -4.472656 -1.878906 -3.859375 -1.828125 Z M -3.875 -5.671875 "/>
</symbol>
<symbol overflow="visible" id="dQCfyWMv8-3">
<path style="stroke:none;" d="M -3.296875 -4.109375 C -3.296875 -3.242188 -3.195312 -2.640625 -3 -2.296875 C -2.800781 -1.960938 -2.460938 -1.796875 -1.984375 -1.796875 C -1.597656 -1.796875 -1.289062 -1.921875 -1.0625 -2.171875 C -0.84375 -2.429688 -0.734375 -2.773438 -0.734375 -3.203125 C -0.734375 -3.804688 -0.941406 -4.285156 -1.359375 -4.640625 C -1.785156 -5.003906 -2.351562 -5.1875 -3.0625 -5.1875 L -3.296875 -5.1875 Z M -3.75 -6.265625 L 0 -6.265625 L 0 -5.1875 L -1 -5.1875 C -0.601562 -4.9375 -0.304688 -4.628906 -0.109375 -4.265625 C 0.078125 -3.898438 0.171875 -3.453125 0.171875 -2.921875 C 0.171875 -2.242188 -0.015625 -1.707031 -0.390625 -1.3125 C -0.773438 -0.914062 -1.28125 -0.71875 -1.90625 -0.71875 C -2.644531 -0.71875 -3.203125 -0.960938 -3.578125 -1.453125 C -3.953125 -1.953125 -4.140625 -2.691406 -4.140625 -3.671875 L -4.140625 -5.1875 L -4.25 -5.1875 C -4.75 -5.1875 -5.132812 -5.019531 -5.40625 -4.6875 C -5.675781 -4.363281 -5.8125 -3.910156 -5.8125 -3.328125 C -5.8125 -2.953125 -5.765625 -2.582031 -5.671875 -2.21875 C -5.578125 -1.863281 -5.441406 -1.523438 -5.265625 -1.203125 L -6.265625 -1.203125 C -6.421875 -1.597656 -6.535156 -1.976562 -6.609375 -2.34375 C -6.679688 -2.71875 -6.71875 -3.082031 -6.71875 -3.4375 C -6.71875 -4.382812 -6.472656 -5.09375 -5.984375 -5.5625 C -5.492188 -6.03125 -4.75 -6.265625 -3.75 -6.265625 Z M -3.75 -6.265625 "/>
</symbol>
<symbol overflow="visible" id="dQCfyWMv8-4">
<path style="stroke:none;" d=""/>
</symbol>
<symbol overflow="visible" id="dQCfyWMv8-5">
<path style="stroke:none;" d="M -5.5625 -4.9375 C -5.625 -4.8125 -5.671875 -4.675781 -5.703125 -4.53125 C -5.742188 -4.394531 -5.765625 -4.238281 -5.765625 -4.0625 C -5.765625 -3.457031 -5.566406 -2.988281 -5.171875 -2.65625 C -4.773438 -2.332031 -4.203125 -2.171875 -3.453125 -2.171875 L 0 -2.171875 L 0 -1.09375 L -6.5625 -1.09375 L -6.5625 -2.171875 L -5.546875 -2.171875 C -5.941406 -2.398438 -6.234375 -2.695312 -6.421875 -3.0625 C -6.617188 -3.425781 -6.71875 -3.867188 -6.71875 -4.390625 C -6.71875 -4.460938 -6.710938 -4.539062 -6.703125 -4.625 C -6.691406 -4.71875 -6.675781 -4.816406 -6.65625 -4.921875 Z M -5.5625 -4.9375 "/>
</symbol>
<symbol overflow="visible" id="dQCfyWMv9-0">
<path style="stroke:none;" d="M 2.125 -0.59375 L -8.46875 -0.59375 L -8.46875 -6.59375 L 2.125 -6.59375 Z M 1.453125 -1.265625 L 1.453125 -5.9375 L -7.78125 -5.9375 L -7.78125 -1.265625 Z M 1.453125 -1.265625 "/>
</symbol>
<symbol overflow="visible" id="dQCfyWMv9-1">
<path style="stroke:none;" d="M -3.546875 -6.75 L -3.03125 -6.75 L -3.03125 -1.78125 C -2.28125 -1.832031 -1.710938 -2.054688 -1.328125 -2.453125 C -0.941406 -2.859375 -0.75 -3.414062 -0.75 -4.125 C -0.75 -4.539062 -0.796875 -4.941406 -0.890625 -5.328125 C -0.992188 -5.722656 -1.148438 -6.113281 -1.359375 -6.5 L -0.328125 -6.5 C -0.171875 -6.101562 -0.0507812 -5.703125 0.03125 -5.296875 C 0.125 -4.890625 0.171875 -4.476562 0.171875 -4.0625 C 0.171875 -3.019531 -0.128906 -2.191406 -0.734375 -1.578125 C -1.347656 -0.960938 -2.175781 -0.65625 -3.21875 -0.65625 C -4.289062 -0.65625 -5.140625 -0.945312 -5.765625 -1.53125 C -6.398438 -2.113281 -6.71875 -2.894531 -6.71875 -3.875 C -6.71875 -4.757812 -6.429688 -5.457031 -5.859375 -5.96875 C -5.296875 -6.488281 -4.523438 -6.75 -3.546875 -6.75 Z M -3.875 -5.671875 C -4.457031 -5.660156 -4.925781 -5.492188 -5.28125 -5.171875 C -5.632812 -4.847656 -5.8125 -4.421875 -5.8125 -3.890625 C -5.8125 -3.285156 -5.640625 -2.800781 -5.296875 -2.4375 C -4.953125 -2.082031 -4.472656 -1.878906 -3.859375 -1.828125 Z M -3.875 -5.671875 "/>
</symbol>
<symbol overflow="visible" id="dQCfyWMv9-2">
<path style="stroke:none;" d="M -5.5625 -5.453125 L -9.125 -5.453125 L -9.125 -6.53125 L 0 -6.53125 L 0 -5.453125 L -0.984375 -5.453125 C -0.597656 -5.222656 -0.304688 -4.9375 -0.109375 -4.59375 C 0.078125 -4.25 0.171875 -3.832031 0.171875 -3.34375 C 0.171875 -2.550781 -0.144531 -1.90625 -0.78125 -1.40625 C -1.414062 -0.90625 -2.25 -0.65625 -3.28125 -0.65625 C -4.3125 -0.65625 -5.140625 -0.90625 -5.765625 -1.40625 C -6.398438 -1.90625 -6.71875 -2.550781 -6.71875 -3.34375 C -6.71875 -3.832031 -6.625 -4.25 -6.4375 -4.59375 C -6.25 -4.9375 -5.957031 -5.222656 -5.5625 -5.453125 Z M -3.28125 -1.78125 C -2.488281 -1.78125 -1.863281 -1.941406 -1.40625 -2.265625 C -0.957031 -2.585938 -0.734375 -3.035156 -0.734375 -3.609375 C -0.734375 -4.179688 -0.957031 -4.628906 -1.40625 -4.953125 C -1.863281 -5.285156 -2.488281 -5.453125 -3.28125 -5.453125 C -4.070312 -5.453125 -4.691406 -5.285156 -5.140625 -4.953125 C -5.585938 -4.628906 -5.8125 -4.179688 -5.8125 -3.609375 C -5.8125 -3.035156 -5.585938 -2.585938 -5.140625 -2.265625 C -4.691406 -1.941406 -4.070312 -1.78125 -3.28125 -1.78125 Z M -3.28125 -1.78125 "/>
</symbol>
<symbol overflow="visible" id="dQCfyWMv10-0">
<path style="stroke:none;" d="M 2.125 -0.59375 L -8.46875 -0.59375 L -8.46875 -6.59375 L 2.125 -6.59375 Z M 1.453125 -1.265625 L 1.453125 -5.9375 L -7.78125 -5.9375 L -7.78125 -1.265625 Z M 1.453125 -1.265625 "/>
</symbol>
<symbol overflow="visible" id="dQCfyWMv10-1">
<path style="stroke:none;" d="M -6.5625 -1.125 L -6.5625 -2.203125 L 0 -2.203125 L 0 -1.125 Z M -9.125 -1.125 L -9.125 -2.203125 L -7.75 -2.203125 L -7.75 -1.125 Z M -9.125 -1.125 "/>
</symbol>
<symbol overflow="visible" id="dQCfyWMv11-0">
<path style="stroke:none;" d="M 2.125 -0.59375 L -8.46875 -0.59375 L -8.46875 -6.59375 L 2.125 -6.59375 Z M 1.453125 -1.265625 L 1.453125 -5.9375 L -7.78125 -5.9375 L -7.78125 -1.265625 Z M 1.453125 -1.265625 "/>
</symbol>
<symbol overflow="visible" id="dQCfyWMv11-1">
<path style="stroke:none;" d="M -5.5625 -5.453125 L -9.125 -5.453125 L -9.125 -6.53125 L 0 -6.53125 L 0 -5.453125 L -0.984375 -5.453125 C -0.597656 -5.222656 -0.304688 -4.9375 -0.109375 -4.59375 C 0.078125 -4.25 0.171875 -3.832031 0.171875 -3.34375 C 0.171875 -2.550781 -0.144531 -1.90625 -0.78125 -1.40625 C -1.414062 -0.90625 -2.25 -0.65625 -3.28125 -0.65625 C -4.3125 -0.65625 -5.140625 -0.90625 -5.765625 -1.40625 C -6.398438 -1.90625 -6.71875 -2.550781 -6.71875 -3.34375 C -6.71875 -3.832031 -6.625 -4.25 -6.4375 -4.59375 C -6.25 -4.9375 -5.957031 -5.222656 -5.5625 -5.453125 Z M -3.28125 -1.78125 C -2.488281 -1.78125 -1.863281 -1.941406 -1.40625 -2.265625 C -0.957031 -2.585938 -0.734375 -3.035156 -0.734375 -3.609375 C -0.734375 -4.179688 -0.957031 -4.628906 -1.40625 -4.953125 C -1.863281 -5.285156 -2.488281 -5.453125 -3.28125 -5.453125 C -4.070312 -5.453125 -4.691406 -5.285156 -5.140625 -4.953125 C -5.585938 -4.628906 -5.8125 -4.179688 -5.8125 -3.609375 C -5.8125 -3.035156 -5.585938 -2.585938 -5.140625 -2.265625 C -4.691406 -1.941406 -4.070312 -1.78125 -3.28125 -1.78125 Z M -3.28125 -1.78125 "/>
</symbol>
<symbol overflow="visible" id="dQCfyWMv12-0">
<path style="stroke:none;" d="M 0.59375 2.125 L 0.59375 -8.46875 L 6.59375 -8.46875 L 6.59375 2.125 Z M 1.265625 1.453125 L 5.9375 1.453125 L 5.9375 -7.78125 L 1.265625 -7.78125 Z M 1.265625 1.453125 "/>
</symbol>
<symbol overflow="visible" id="dQCfyWMv12-1">
<path style="stroke:none;" d="M 1.484375 -1 L 3.421875 -1 L 3.421875 -7.671875 L 1.3125 -7.25 L 1.3125 -8.328125 L 3.40625 -8.75 L 4.59375 -8.75 L 4.59375 -1 L 6.53125 -1 L 6.53125 0 L 1.484375 0 Z M 1.484375 -1 "/>
</symbol>
<symbol overflow="visible" id="dQCfyWMv12-2">
<path style="stroke:none;" d="M 1.28125 -1.484375 L 2.515625 -1.484375 L 2.515625 0 L 1.28125 0 Z M 1.28125 -1.484375 "/>
</symbol>
<symbol overflow="visible" id="dQCfyWMv12-3">
<path style="stroke:none;" d="M 1.296875 -8.75 L 5.9375 -8.75 L 5.9375 -7.75 L 2.375 -7.75 L 2.375 -5.609375 C 2.550781 -5.671875 2.722656 -5.710938 2.890625 -5.734375 C 3.066406 -5.765625 3.238281 -5.78125 3.40625 -5.78125 C 4.382812 -5.78125 5.160156 -5.507812 5.734375 -4.96875 C 6.304688 -4.4375 6.59375 -3.71875 6.59375 -2.8125 C 6.59375 -1.863281 6.296875 -1.128906 5.703125 -0.609375 C 5.117188 -0.0859375 4.296875 0.171875 3.234375 0.171875 C 2.859375 0.171875 2.476562 0.140625 2.09375 0.078125 C 1.71875 0.015625 1.328125 -0.078125 0.921875 -0.203125 L 0.921875 -1.390625 C 1.273438 -1.203125 1.640625 -1.0625 2.015625 -0.96875 C 2.390625 -0.875 2.785156 -0.828125 3.203125 -0.828125 C 3.878906 -0.828125 4.414062 -1.003906 4.8125 -1.359375 C 5.207031 -1.710938 5.40625 -2.195312 5.40625 -2.8125 C 5.40625 -3.414062 5.207031 -3.894531 4.8125 -4.25 C 4.414062 -4.601562 3.878906 -4.78125 3.203125 -4.78125 C 2.890625 -4.78125 2.570312 -4.742188 2.25 -4.671875 C 1.9375 -4.609375 1.617188 -4.503906 1.296875 -4.359375 Z M 1.296875 -8.75 "/>
</symbol>
<symbol overflow="visible" id="dQCfyWMv12-4">
<path style="stroke:none;" d="M 3.8125 -7.96875 C 3.207031 -7.96875 2.75 -7.664062 2.4375 -7.0625 C 2.132812 -6.46875 1.984375 -5.566406 1.984375 -4.359375 C 1.984375 -3.160156 2.132812 -2.257812 2.4375 -1.65625 C 2.75 -1.0625 3.207031 -0.765625 3.8125 -0.765625 C 4.425781 -0.765625 4.882812 -1.0625 5.1875 -1.65625 C 5.5 -2.257812 5.65625 -3.160156 5.65625 -4.359375 C 5.65625 -5.566406 5.5 -6.46875 5.1875 -7.0625 C 4.882812 -7.664062 4.425781 -7.96875 3.8125 -7.96875 Z M 3.8125 -8.90625 C 4.789062 -8.90625 5.539062 -8.515625 6.0625 -7.734375 C 6.582031 -6.960938 6.84375 -5.835938 6.84375 -4.359375 C 6.84375 -2.890625 6.582031 -1.765625 6.0625 -0.984375 C 5.539062 -0.210938 4.789062 0.171875 3.8125 0.171875 C 2.832031 0.171875 2.082031 -0.210938 1.5625 -0.984375 C 1.050781 -1.765625 0.796875 -2.890625 0.796875 -4.359375 C 0.796875 -5.835938 1.050781 -6.960938 1.5625 -7.734375 C 2.082031 -8.515625 2.832031 -8.90625 3.8125 -8.90625 Z M 3.8125 -8.90625 "/>
</symbol>
<symbol overflow="visible" id="dQCfyWMv13-0">
<path style="stroke:none;" d="M 0.59375 2.125 L 0.59375 -8.46875 L 6.59375 -8.46875 L 6.59375 2.125 Z M 1.265625 1.453125 L 5.9375 1.453125 L 5.9375 -7.78125 L 1.265625 -7.78125 Z M 1.265625 1.453125 "/>
</symbol>
<symbol overflow="visible" id="dQCfyWMv13-1">
<path style="stroke:none;" d="M 3.8125 -7.96875 C 3.207031 -7.96875 2.75 -7.664062 2.4375 -7.0625 C 2.132812 -6.46875 1.984375 -5.566406 1.984375 -4.359375 C 1.984375 -3.160156 2.132812 -2.257812 2.4375 -1.65625 C 2.75 -1.0625 3.207031 -0.765625 3.8125 -0.765625 C 4.425781 -0.765625 4.882812 -1.0625 5.1875 -1.65625 C 5.5 -2.257812 5.65625 -3.160156 5.65625 -4.359375 C 5.65625 -5.566406 5.5 -6.46875 5.1875 -7.0625 C 4.882812 -7.664062 4.425781 -7.96875 3.8125 -7.96875 Z M 3.8125 -8.90625 C 4.789062 -8.90625 5.539062 -8.515625 6.0625 -7.734375 C 6.582031 -6.960938 6.84375 -5.835938 6.84375 -4.359375 C 6.84375 -2.890625 6.582031 -1.765625 6.0625 -0.984375 C 5.539062 -0.210938 4.789062 0.171875 3.8125 0.171875 C 2.832031 0.171875 2.082031 -0.210938 1.5625 -0.984375 C 1.050781 -1.765625 0.796875 -2.890625 0.796875 -4.359375 C 0.796875 -5.835938 1.050781 -6.960938 1.5625 -7.734375 C 2.082031 -8.515625 2.832031 -8.90625 3.8125 -8.90625 Z M 3.8125 -8.90625 "/>
</symbol>
<symbol overflow="visible" id="dQCfyWMv13-2">
<path style="stroke:none;" d="M 8.421875 -6.453125 L 5.734375 -3.75 L 8.421875 -1.078125 L 7.71875 -0.375 L 5.03125 -3.0625 L 2.34375 -0.375 L 1.640625 -1.078125 L 4.3125 -3.75 L 1.640625 -6.453125 L 2.34375 -7.15625 L 5.03125 -4.46875 L 7.71875 -7.15625 Z M 8.421875 -6.453125 "/>
</symbol>
<symbol overflow="visible" id="dQCfyWMv13-3">
<path style="stroke:none;" d="M 1.484375 -1 L 3.421875 -1 L 3.421875 -7.671875 L 1.3125 -7.25 L 1.3125 -8.328125 L 3.40625 -8.75 L 4.59375 -8.75 L 4.59375 -1 L 6.53125 -1 L 6.53125 0 L 1.484375 0 Z M 1.484375 -1 "/>
</symbol>
<symbol overflow="visible" id="dQCfyWMv13-4">
<path style="stroke:none;" d="M 1.578125 -4.578125 L 4.0625 -4.578125 L 4.0625 -3.921875 L 0.546875 -3.921875 L 0.546875 -4.5625 C 0.679688 -4.675781 0.875 -4.84375 1.125 -5.0625 C 2.46875 -6.257812 3.140625 -7.039062 3.140625 -7.40625 C 3.140625 -7.664062 3.035156 -7.875 2.828125 -8.03125 C 2.628906 -8.1875 2.363281 -8.265625 2.03125 -8.265625 C 1.820312 -8.265625 1.597656 -8.226562 1.359375 -8.15625 C 1.128906 -8.09375 0.875 -7.992188 0.59375 -7.859375 L 0.59375 -8.578125 C 0.882812 -8.691406 1.160156 -8.773438 1.421875 -8.828125 C 1.679688 -8.878906 1.925781 -8.90625 2.15625 -8.90625 C 2.71875 -8.90625 3.164062 -8.773438 3.5 -8.515625 C 3.84375 -8.265625 4.015625 -7.925781 4.015625 -7.5 C 4.015625 -6.957031 3.367188 -6.128906 2.078125 -5.015625 C 1.859375 -4.828125 1.691406 -4.679688 1.578125 -4.578125 Z M 1.578125 -4.578125 "/>
</symbol>
<symbol overflow="visible" id="dQCfyWMv13-5">
<path style="stroke:none;" d="M 1.296875 -8.75 L 5.9375 -8.75 L 5.9375 -7.75 L 2.375 -7.75 L 2.375 -5.609375 C 2.550781 -5.671875 2.722656 -5.710938 2.890625 -5.734375 C 3.066406 -5.765625 3.238281 -5.78125 3.40625 -5.78125 C 4.382812 -5.78125 5.160156 -5.507812 5.734375 -4.96875 C 6.304688 -4.4375 6.59375 -3.71875 6.59375 -2.8125 C 6.59375 -1.863281 6.296875 -1.128906 5.703125 -0.609375 C 5.117188 -0.0859375 4.296875 0.171875 3.234375 0.171875 C 2.859375 0.171875 2.476562 0.140625 2.09375 0.078125 C 1.71875 0.015625 1.328125 -0.078125 0.921875 -0.203125 L 0.921875 -1.390625 C 1.273438 -1.203125 1.640625 -1.0625 2.015625 -0.96875 C 2.390625 -0.875 2.785156 -0.828125 3.203125 -0.828125 C 3.878906 -0.828125 4.414062 -1.003906 4.8125 -1.359375 C 5.207031 -1.710938 5.40625 -2.195312 5.40625 -2.8125 C 5.40625 -3.414062 5.207031 -3.894531 4.8125 -4.25 C 4.414062 -4.601562 3.878906 -4.78125 3.203125 -4.78125 C 2.890625 -4.78125 2.570312 -4.742188 2.25 -4.671875 C 1.9375 -4.609375 1.617188 -4.503906 1.296875 -4.359375 Z M 1.296875 -8.75 "/>
</symbol>
<symbol overflow="visible" id="dQCfyWMv13-6">
<path style="stroke:none;" d="M 2.546875 -6.640625 C 2.203125 -6.640625 1.929688 -6.535156 1.734375 -6.328125 C 1.535156 -6.128906 1.4375 -5.847656 1.4375 -5.484375 C 1.4375 -5.140625 1.535156 -4.863281 1.734375 -4.65625 C 1.929688 -4.445312 2.203125 -4.34375 2.546875 -4.34375 C 2.890625 -4.34375 3.160156 -4.445312 3.359375 -4.65625 C 3.554688 -4.863281 3.65625 -5.140625 3.65625 -5.484375 C 3.65625 -5.847656 3.554688 -6.128906 3.359375 -6.328125 C 3.160156 -6.535156 2.890625 -6.640625 2.546875 -6.640625 Z M 4.0625 -8.71875 L 4.0625 -8.109375 C 3.875 -8.191406 3.679688 -8.25 3.484375 -8.28125 C 3.285156 -8.320312 3.09375 -8.34375 2.90625 -8.34375 C 2.40625 -8.34375 2.019531 -8.195312 1.75 -7.90625 C 1.488281 -7.613281 1.335938 -7.164062 1.296875 -6.5625 C 1.441406 -6.757812 1.628906 -6.910156 1.859375 -7.015625 C 2.078125 -7.109375 2.320312 -7.15625 2.59375 -7.15625 C 3.15625 -7.15625 3.601562 -7.007812 3.9375 -6.71875 C 4.257812 -6.414062 4.421875 -6.003906 4.421875 -5.484375 C 4.421875 -4.992188 4.25 -4.59375 3.90625 -4.28125 C 3.570312 -3.976562 3.117188 -3.828125 2.546875 -3.828125 C 1.898438 -3.828125 1.40625 -4.039062 1.0625 -4.46875 C 0.71875 -4.90625 0.546875 -5.539062 0.546875 -6.375 C 0.546875 -7.144531 0.753906 -7.757812 1.171875 -8.21875 C 1.597656 -8.675781 2.164062 -8.90625 2.875 -8.90625 C 3.0625 -8.90625 3.253906 -8.890625 3.453125 -8.859375 C 3.648438 -8.828125 3.851562 -8.78125 4.0625 -8.71875 Z M 4.0625 -8.71875 "/>
</symbol>
<symbol overflow="visible" id="dQCfyWMv14-0">
<path style="stroke:none;" d="M 0.59375 2.125 L 0.59375 -8.46875 L 6.59375 -8.46875 L 6.59375 2.125 Z M 1.265625 1.453125 L 5.9375 1.453125 L 5.9375 -7.78125 L 1.265625 -7.78125 Z M 1.265625 1.453125 "/>
</symbol>
<symbol overflow="visible" id="dQCfyWMv14-1">
<path style="stroke:none;" d="M 0.640625 -8.8125 L 4.25 -8.8125 L 4.25 -8.53125 L 2.203125 -3.921875 L 1.40625 -3.921875 L 3.328125 -8.25 L 0.640625 -8.25 Z M 0.640625 -8.8125 "/>
</symbol>
<symbol overflow="visible" id="dQCfyWMv14-2">
<path style="stroke:none;" d="M 3.8125 -7.96875 C 3.207031 -7.96875 2.75 -7.664062 2.4375 -7.0625 C 2.132812 -6.46875 1.984375 -5.566406 1.984375 -4.359375 C 1.984375 -3.160156 2.132812 -2.257812 2.4375 -1.65625 C 2.75 -1.0625 3.207031 -0.765625 3.8125 -0.765625 C 4.425781 -0.765625 4.882812 -1.0625 5.1875 -1.65625 C 5.5 -2.257812 5.65625 -3.160156 5.65625 -4.359375 C 5.65625 -5.566406 5.5 -6.46875 5.1875 -7.0625 C 4.882812 -7.664062 4.425781 -7.96875 3.8125 -7.96875 Z M 3.8125 -8.90625 C 4.789062 -8.90625 5.539062 -8.515625 6.0625 -7.734375 C 6.582031 -6.960938 6.84375 -5.835938 6.84375 -4.359375 C 6.84375 -2.890625 6.582031 -1.765625 6.0625 -0.984375 C 5.539062 -0.210938 4.789062 0.171875 3.8125 0.171875 C 2.832031 0.171875 2.082031 -0.210938 1.5625 -0.984375 C 1.050781 -1.765625 0.796875 -2.890625 0.796875 -4.359375 C 0.796875 -5.835938 1.050781 -6.960938 1.5625 -7.734375 C 2.082031 -8.515625 2.832031 -8.90625 3.8125 -8.90625 Z M 3.8125 -8.90625 "/>
</symbol>
<symbol overflow="visible" id="dQCfyWMv15-0">
<path style="stroke:none;" d="M 0.59375 2.125 L 0.59375 -8.46875 L 6.59375 -8.46875 L 6.59375 2.125 Z M 1.265625 1.453125 L 5.9375 1.453125 L 5.9375 -7.78125 L 1.265625 -7.78125 Z M 1.265625 1.453125 "/>
</symbol>
<symbol overflow="visible" id="dQCfyWMv15-1">
<path style="stroke:none;" d="M 0.59375 -3.765625 L 3.75 -3.765625 L 3.75 -2.8125 L 0.59375 -2.8125 Z M 0.59375 -3.765625 "/>
</symbol>
<symbol overflow="visible" id="dQCfyWMv15-2">
<path style="stroke:none;" d="M 3.8125 -7.96875 C 3.207031 -7.96875 2.75 -7.664062 2.4375 -7.0625 C 2.132812 -6.46875 1.984375 -5.566406 1.984375 -4.359375 C 1.984375 -3.160156 2.132812 -2.257812 2.4375 -1.65625 C 2.75 -1.0625 3.207031 -0.765625 3.8125 -0.765625 C 4.425781 -0.765625 4.882812 -1.0625 5.1875 -1.65625 C 5.5 -2.257812 5.65625 -3.160156 5.65625 -4.359375 C 5.65625 -5.566406 5.5 -6.46875 5.1875 -7.0625 C 4.882812 -7.664062 4.425781 -7.96875 3.8125 -7.96875 Z M 3.8125 -8.90625 C 4.789062 -8.90625 5.539062 -8.515625 6.0625 -7.734375 C 6.582031 -6.960938 6.84375 -5.835938 6.84375 -4.359375 C 6.84375 -2.890625 6.582031 -1.765625 6.0625 -0.984375 C 5.539062 -0.210938 4.789062 0.171875 3.8125 0.171875 C 2.832031 0.171875 2.082031 -0.210938 1.5625 -0.984375 C 1.050781 -1.765625 0.796875 -2.890625 0.796875 -4.359375 C 0.796875 -5.835938 1.050781 -6.960938 1.5625 -7.734375 C 2.082031 -8.515625 2.832031 -8.90625 3.8125 -8.90625 Z M 3.8125 -8.90625 "/>
</symbol>
<symbol overflow="visible" id="dQCfyWMv16-0">
<path style="stroke:none;" d="M 0.59375 2.125 L 0.59375 -8.46875 L 6.59375 -8.46875 L 6.59375 2.125 Z M 1.265625 1.453125 L 5.9375 1.453125 L 5.9375 -7.78125 L 1.265625 -7.78125 Z M 1.265625 1.453125 "/>
</symbol>
<symbol overflow="visible" id="dQCfyWMv16-1">
<path style="stroke:none;" d="M 1.484375 -1 L 3.421875 -1 L 3.421875 -7.671875 L 1.3125 -7.25 L 1.3125 -8.328125 L 3.40625 -8.75 L 4.59375 -8.75 L 4.59375 -1 L 6.53125 -1 L 6.53125 0 L 1.484375 0 Z M 1.484375 -1 "/>
</symbol>
<symbol overflow="visible" id="dQCfyWMv16-2">
<path style="stroke:none;" d="M 1.28125 -1.484375 L 2.515625 -1.484375 L 2.515625 0 L 1.28125 0 Z M 1.28125 -1.484375 "/>
</symbol>
<symbol overflow="visible" id="dQCfyWMv16-3">
<path style="stroke:none;" d="M 3.8125 -7.96875 C 3.207031 -7.96875 2.75 -7.664062 2.4375 -7.0625 C 2.132812 -6.46875 1.984375 -5.566406 1.984375 -4.359375 C 1.984375 -3.160156 2.132812 -2.257812 2.4375 -1.65625 C 2.75 -1.0625 3.207031 -0.765625 3.8125 -0.765625 C 4.425781 -0.765625 4.882812 -1.0625 5.1875 -1.65625 C 5.5 -2.257812 5.65625 -3.160156 5.65625 -4.359375 C 5.65625 -5.566406 5.5 -6.46875 5.1875 -7.0625 C 4.882812 -7.664062 4.425781 -7.96875 3.8125 -7.96875 Z M 3.8125 -8.90625 C 4.789062 -8.90625 5.539062 -8.515625 6.0625 -7.734375 C 6.582031 -6.960938 6.84375 -5.835938 6.84375 -4.359375 C 6.84375 -2.890625 6.582031 -1.765625 6.0625 -0.984375 C 5.539062 -0.210938 4.789062 0.171875 3.8125 0.171875 C 2.832031 0.171875 2.082031 -0.210938 1.5625 -0.984375 C 1.050781 -1.765625 0.796875 -2.890625 0.796875 -4.359375 C 0.796875 -5.835938 1.050781 -6.960938 1.5625 -7.734375 C 2.082031 -8.515625 2.832031 -8.90625 3.8125 -8.90625 Z M 3.8125 -8.90625 "/>
</symbol>
<symbol overflow="visible" id="dQCfyWMv17-0">
<path style="stroke:none;" d="M 0.59375 2.125 L 0.59375 -8.46875 L 6.59375 -8.46875 L 6.59375 2.125 Z M 1.265625 1.453125 L 5.9375 1.453125 L 5.9375 -7.78125 L 1.265625 -7.78125 Z M 1.265625 1.453125 "/>
</symbol>
<symbol overflow="visible" id="dQCfyWMv17-1">
<path style="stroke:none;" d="M 3.8125 -7.96875 C 3.207031 -7.96875 2.75 -7.664062 2.4375 -7.0625 C 2.132812 -6.46875 1.984375 -5.566406 1.984375 -4.359375 C 1.984375 -3.160156 2.132812 -2.257812 2.4375 -1.65625 C 2.75 -1.0625 3.207031 -0.765625 3.8125 -0.765625 C 4.425781 -0.765625 4.882812 -1.0625 5.1875 -1.65625 C 5.5 -2.257812 5.65625 -3.160156 5.65625 -4.359375 C 5.65625 -5.566406 5.5 -6.46875 5.1875 -7.0625 C 4.882812 -7.664062 4.425781 -7.96875 3.8125 -7.96875 Z M 3.8125 -8.90625 C 4.789062 -8.90625 5.539062 -8.515625 6.0625 -7.734375 C 6.582031 -6.960938 6.84375 -5.835938 6.84375 -4.359375 C 6.84375 -2.890625 6.582031 -1.765625 6.0625 -0.984375 C 5.539062 -0.210938 4.789062 0.171875 3.8125 0.171875 C 2.832031 0.171875 2.082031 -0.210938 1.5625 -0.984375 C 1.050781 -1.765625 0.796875 -2.890625 0.796875 -4.359375 C 0.796875 -5.835938 1.050781 -6.960938 1.5625 -7.734375 C 2.082031 -8.515625 2.832031 -8.90625 3.8125 -8.90625 Z M 3.8125 -8.90625 "/>
</symbol>
<symbol overflow="visible" id="dQCfyWMv17-2">
<path style="stroke:none;" d="M 8.421875 -6.453125 L 5.734375 -3.75 L 8.421875 -1.078125 L 7.71875 -0.375 L 5.03125 -3.0625 L 2.34375 -0.375 L 1.640625 -1.078125 L 4.3125 -3.75 L 1.640625 -6.453125 L 2.34375 -7.15625 L 5.03125 -4.46875 L 7.71875 -7.15625 Z M 8.421875 -6.453125 "/>
</symbol>
<symbol overflow="visible" id="dQCfyWMv17-3">
<path style="stroke:none;" d="M 1.484375 -1 L 3.421875 -1 L 3.421875 -7.671875 L 1.3125 -7.25 L 1.3125 -8.328125 L 3.40625 -8.75 L 4.59375 -8.75 L 4.59375 -1 L 6.53125 -1 L 6.53125 0 L 1.484375 0 Z M 1.484375 -1 "/>
</symbol>
<symbol overflow="visible" id="dQCfyWMv17-4">
<path style="stroke:none;" d="M 1.578125 -4.578125 L 4.0625 -4.578125 L 4.0625 -3.921875 L 0.546875 -3.921875 L 0.546875 -4.5625 C 0.679688 -4.675781 0.875 -4.84375 1.125 -5.0625 C 2.46875 -6.257812 3.140625 -7.039062 3.140625 -7.40625 C 3.140625 -7.664062 3.035156 -7.875 2.828125 -8.03125 C 2.628906 -8.1875 2.363281 -8.265625 2.03125 -8.265625 C 1.820312 -8.265625 1.597656 -8.226562 1.359375 -8.15625 C 1.128906 -8.09375 0.875 -7.992188 0.59375 -7.859375 L 0.59375 -8.578125 C 0.882812 -8.691406 1.160156 -8.773438 1.421875 -8.828125 C 1.679688 -8.878906 1.925781 -8.90625 2.15625 -8.90625 C 2.71875 -8.90625 3.164062 -8.773438 3.5 -8.515625 C 3.84375 -8.265625 4.015625 -7.925781 4.015625 -7.5 C 4.015625 -6.957031 3.367188 -6.128906 2.078125 -5.015625 C 1.859375 -4.828125 1.691406 -4.679688 1.578125 -4.578125 Z M 1.578125 -4.578125 "/>
</symbol>
<symbol overflow="visible" id="dQCfyWMv18-0">
<path style="stroke:none;" d="M 0.59375 2.125 L 0.59375 -8.46875 L 6.59375 -8.46875 L 6.59375 2.125 Z M 1.265625 1.453125 L 5.9375 1.453125 L 5.9375 -7.78125 L 1.265625 -7.78125 Z M 1.265625 1.453125 "/>
</symbol>
<symbol overflow="visible" id="dQCfyWMv18-1">
<path style="stroke:none;" d="M 0.640625 -8.8125 L 4.25 -8.8125 L 4.25 -8.53125 L 2.203125 -3.921875 L 1.40625 -3.921875 L 3.328125 -8.25 L 0.640625 -8.25 Z M 0.640625 -8.8125 "/>
</symbol>
<symbol overflow="visible" id="dQCfyWMv19-0">
<path style="stroke:none;" d="M 0.59375 2.125 L 0.59375 -8.46875 L 6.59375 -8.46875 L 6.59375 2.125 Z M 1.265625 1.453125 L 5.9375 1.453125 L 5.9375 -7.78125 L 1.265625 -7.78125 Z M 1.265625 1.453125 "/>
</symbol>
<symbol overflow="visible" id="dQCfyWMv19-1">
<path style="stroke:none;" d="M 1.28125 -1.484375 L 2.515625 -1.484375 L 2.515625 0 L 1.28125 0 Z M 1.28125 -1.484375 "/>
</symbol>
<symbol overflow="visible" id="dQCfyWMv20-0">
<path style="stroke:none;" d="M 0.59375 2.125 L 0.59375 -8.46875 L 6.59375 -8.46875 L 6.59375 2.125 Z M 1.265625 1.453125 L 5.9375 1.453125 L 5.9375 -7.78125 L 1.265625 -7.78125 Z M 1.265625 1.453125 "/>
</symbol>
<symbol overflow="visible" id="dQCfyWMv20-1">
<path style="stroke:none;" d="M 3.8125 -7.96875 C 3.207031 -7.96875 2.75 -7.664062 2.4375 -7.0625 C 2.132812 -6.46875 1.984375 -5.566406 1.984375 -4.359375 C 1.984375 -3.160156 2.132812 -2.257812 2.4375 -1.65625 C 2.75 -1.0625 3.207031 -0.765625 3.8125 -0.765625 C 4.425781 -0.765625 4.882812 -1.0625 5.1875 -1.65625 C 5.5 -2.257812 5.65625 -3.160156 5.65625 -4.359375 C 5.65625 -5.566406 5.5 -6.46875 5.1875 -7.0625 C 4.882812 -7.664062 4.425781 -7.96875 3.8125 -7.96875 Z M 3.8125 -8.90625 C 4.789062 -8.90625 5.539062 -8.515625 6.0625 -7.734375 C 6.582031 -6.960938 6.84375 -5.835938 6.84375 -4.359375 C 6.84375 -2.890625 6.582031 -1.765625 6.0625 -0.984375 C 5.539062 -0.210938 4.789062 0.171875 3.8125 0.171875 C 2.832031 0.171875 2.082031 -0.210938 1.5625 -0.984375 C 1.050781 -1.765625 0.796875 -2.890625 0.796875 -4.359375 C 0.796875 -5.835938 1.050781 -6.960938 1.5625 -7.734375 C 2.082031 -8.515625 2.832031 -8.90625 3.8125 -8.90625 Z M 3.8125 -8.90625 "/>
</symbol>
<symbol overflow="visible" id="dQCfyWMv20-2">
<path style="stroke:none;" d="M 1.296875 -8.75 L 5.9375 -8.75 L 5.9375 -7.75 L 2.375 -7.75 L 2.375 -5.609375 C 2.550781 -5.671875 2.722656 -5.710938 2.890625 -5.734375 C 3.066406 -5.765625 3.238281 -5.78125 3.40625 -5.78125 C 4.382812 -5.78125 5.160156 -5.507812 5.734375 -4.96875 C 6.304688 -4.4375 6.59375 -3.71875 6.59375 -2.8125 C 6.59375 -1.863281 6.296875 -1.128906 5.703125 -0.609375 C 5.117188 -0.0859375 4.296875 0.171875 3.234375 0.171875 C 2.859375 0.171875 2.476562 0.140625 2.09375 0.078125 C 1.71875 0.015625 1.328125 -0.078125 0.921875 -0.203125 L 0.921875 -1.390625 C 1.273438 -1.203125 1.640625 -1.0625 2.015625 -0.96875 C 2.390625 -0.875 2.785156 -0.828125 3.203125 -0.828125 C 3.878906 -0.828125 4.414062 -1.003906 4.8125 -1.359375 C 5.207031 -1.710938 5.40625 -2.195312 5.40625 -2.8125 C 5.40625 -3.414062 5.207031 -3.894531 4.8125 -4.25 C 4.414062 -4.601562 3.878906 -4.78125 3.203125 -4.78125 C 2.890625 -4.78125 2.570312 -4.742188 2.25 -4.671875 C 1.9375 -4.609375 1.617188 -4.503906 1.296875 -4.359375 Z M 1.296875 -8.75 "/>
</symbol>
<symbol overflow="visible" id="dQCfyWMv20-3">
<path style="stroke:none;" d="M 8.421875 -6.453125 L 5.734375 -3.75 L 8.421875 -1.078125 L 7.71875 -0.375 L 5.03125 -3.0625 L 2.34375 -0.375 L 1.640625 -1.078125 L 4.3125 -3.75 L 1.640625 -6.453125 L 2.34375 -7.15625 L 5.03125 -4.46875 L 7.71875 -7.15625 Z M 8.421875 -6.453125 "/>
</symbol>
<symbol overflow="visible" id="dQCfyWMv20-4">
<path style="stroke:none;" d="M 2.546875 -6.640625 C 2.203125 -6.640625 1.929688 -6.535156 1.734375 -6.328125 C 1.535156 -6.128906 1.4375 -5.847656 1.4375 -5.484375 C 1.4375 -5.140625 1.535156 -4.863281 1.734375 -4.65625 C 1.929688 -4.445312 2.203125 -4.34375 2.546875 -4.34375 C 2.890625 -4.34375 3.160156 -4.445312 3.359375 -4.65625 C 3.554688 -4.863281 3.65625 -5.140625 3.65625 -5.484375 C 3.65625 -5.847656 3.554688 -6.128906 3.359375 -6.328125 C 3.160156 -6.535156 2.890625 -6.640625 2.546875 -6.640625 Z M 4.0625 -8.71875 L 4.0625 -8.109375 C 3.875 -8.191406 3.679688 -8.25 3.484375 -8.28125 C 3.285156 -8.320312 3.09375 -8.34375 2.90625 -8.34375 C 2.40625 -8.34375 2.019531 -8.195312 1.75 -7.90625 C 1.488281 -7.613281 1.335938 -7.164062 1.296875 -6.5625 C 1.441406 -6.757812 1.628906 -6.910156 1.859375 -7.015625 C 2.078125 -7.109375 2.320312 -7.15625 2.59375 -7.15625 C 3.15625 -7.15625 3.601562 -7.007812 3.9375 -6.71875 C 4.257812 -6.414062 4.421875 -6.003906 4.421875 -5.484375 C 4.421875 -4.992188 4.25 -4.59375 3.90625 -4.28125 C 3.570312 -3.976562 3.117188 -3.828125 2.546875 -3.828125 C 1.898438 -3.828125 1.40625 -4.039062 1.0625 -4.46875 C 0.71875 -4.90625 0.546875 -5.539062 0.546875 -6.375 C 0.546875 -7.144531 0.753906 -7.757812 1.171875 -8.21875 C 1.597656 -8.675781 2.164062 -8.90625 2.875 -8.90625 C 3.0625 -8.90625 3.253906 -8.890625 3.453125 -8.859375 C 3.648438 -8.828125 3.851562 -8.78125 4.0625 -8.71875 Z M 4.0625 -8.71875 "/>
</symbol>
<symbol overflow="visible" id="dQCfyWMv21-0">
<path style="stroke:none;" d="M 0.59375 2.125 L 0.59375 -8.46875 L 6.59375 -8.46875 L 6.59375 2.125 Z M 1.265625 1.453125 L 5.9375 1.453125 L 5.9375 -7.78125 L 1.265625 -7.78125 Z M 1.265625 1.453125 "/>
</symbol>
<symbol overflow="visible" id="dQCfyWMv21-1">
<path style="stroke:none;" d="M 1.28125 -1.484375 L 2.515625 -1.484375 L 2.515625 0 L 1.28125 0 Z M 1.28125 -1.484375 "/>
</symbol>
<symbol overflow="visible" id="dQCfyWMv22-0">
<path style="stroke:none;" d="M 0.59375 2.125 L 0.59375 -8.46875 L 6.59375 -8.46875 L 6.59375 2.125 Z M 1.265625 1.453125 L 5.9375 1.453125 L 5.9375 -7.78125 L 1.265625 -7.78125 Z M 1.265625 1.453125 "/>
</symbol>
<symbol overflow="visible" id="dQCfyWMv22-1">
<path style="stroke:none;" d="M 3.8125 -7.96875 C 3.207031 -7.96875 2.75 -7.664062 2.4375 -7.0625 C 2.132812 -6.46875 1.984375 -5.566406 1.984375 -4.359375 C 1.984375 -3.160156 2.132812 -2.257812 2.4375 -1.65625 C 2.75 -1.0625 3.207031 -0.765625 3.8125 -0.765625 C 4.425781 -0.765625 4.882812 -1.0625 5.1875 -1.65625 C 5.5 -2.257812 5.65625 -3.160156 5.65625 -4.359375 C 5.65625 -5.566406 5.5 -6.46875 5.1875 -7.0625 C 4.882812 -7.664062 4.425781 -7.96875 3.8125 -7.96875 Z M 3.8125 -8.90625 C 4.789062 -8.90625 5.539062 -8.515625 6.0625 -7.734375 C 6.582031 -6.960938 6.84375 -5.835938 6.84375 -4.359375 C 6.84375 -2.890625 6.582031 -1.765625 6.0625 -0.984375 C 5.539062 -0.210938 4.789062 0.171875 3.8125 0.171875 C 2.832031 0.171875 2.082031 -0.210938 1.5625 -0.984375 C 1.050781 -1.765625 0.796875 -2.890625 0.796875 -4.359375 C 0.796875 -5.835938 1.050781 -6.960938 1.5625 -7.734375 C 2.082031 -8.515625 2.832031 -8.90625 3.8125 -8.90625 Z M 3.8125 -8.90625 "/>
</symbol>
<symbol overflow="visible" id="dQCfyWMv23-0">
<path style="stroke:none;" d="M 0.59375 2.125 L 0.59375 -8.46875 L 6.59375 -8.46875 L 6.59375 2.125 Z M 1.265625 1.453125 L 5.9375 1.453125 L 5.9375 -7.78125 L 1.265625 -7.78125 Z M 1.265625 1.453125 "/>
</symbol>
<symbol overflow="visible" id="dQCfyWMv23-1">
<path style="stroke:none;" d="M 3.8125 -7.96875 C 3.207031 -7.96875 2.75 -7.664062 2.4375 -7.0625 C 2.132812 -6.46875 1.984375 -5.566406 1.984375 -4.359375 C 1.984375 -3.160156 2.132812 -2.257812 2.4375 -1.65625 C 2.75 -1.0625 3.207031 -0.765625 3.8125 -0.765625 C 4.425781 -0.765625 4.882812 -1.0625 5.1875 -1.65625 C 5.5 -2.257812 5.65625 -3.160156 5.65625 -4.359375 C 5.65625 -5.566406 5.5 -6.46875 5.1875 -7.0625 C 4.882812 -7.664062 4.425781 -7.96875 3.8125 -7.96875 Z M 3.8125 -8.90625 C 4.789062 -8.90625 5.539062 -8.515625 6.0625 -7.734375 C 6.582031 -6.960938 6.84375 -5.835938 6.84375 -4.359375 C 6.84375 -2.890625 6.582031 -1.765625 6.0625 -0.984375 C 5.539062 -0.210938 4.789062 0.171875 3.8125 0.171875 C 2.832031 0.171875 2.082031 -0.210938 1.5625 -0.984375 C 1.050781 -1.765625 0.796875 -2.890625 0.796875 -4.359375 C 0.796875 -5.835938 1.050781 -6.960938 1.5625 -7.734375 C 2.082031 -8.515625 2.832031 -8.90625 3.8125 -8.90625 Z M 3.8125 -8.90625 "/>
</symbol>
<symbol overflow="visible" id="dQCfyWMv23-2">
<path style="stroke:none;" d="M 1.484375 -1 L 3.421875 -1 L 3.421875 -7.671875 L 1.3125 -7.25 L 1.3125 -8.328125 L 3.40625 -8.75 L 4.59375 -8.75 L 4.59375 -1 L 6.53125 -1 L 6.53125 0 L 1.484375 0 Z M 1.484375 -1 "/>
</symbol>
<symbol overflow="visible" id="dQCfyWMv23-3">
<path style="stroke:none;" d="M 1.578125 -4.578125 L 4.0625 -4.578125 L 4.0625 -3.921875 L 0.546875 -3.921875 L 0.546875 -4.5625 C 0.679688 -4.675781 0.875 -4.84375 1.125 -5.0625 C 2.46875 -6.257812 3.140625 -7.039062 3.140625 -7.40625 C 3.140625 -7.664062 3.035156 -7.875 2.828125 -8.03125 C 2.628906 -8.1875 2.363281 -8.265625 2.03125 -8.265625 C 1.820312 -8.265625 1.597656 -8.226562 1.359375 -8.15625 C 1.128906 -8.09375 0.875 -7.992188 0.59375 -7.859375 L 0.59375 -8.578125 C 0.882812 -8.691406 1.160156 -8.773438 1.421875 -8.828125 C 1.679688 -8.878906 1.925781 -8.90625 2.15625 -8.90625 C 2.71875 -8.90625 3.164062 -8.773438 3.5 -8.515625 C 3.84375 -8.265625 4.015625 -7.925781 4.015625 -7.5 C 4.015625 -6.957031 3.367188 -6.128906 2.078125 -5.015625 C 1.859375 -4.828125 1.691406 -4.679688 1.578125 -4.578125 Z M 1.578125 -4.578125 "/>
</symbol>
<symbol overflow="visible" id="dQCfyWMv24-0">
<path style="stroke:none;" d="M 0.59375 2.125 L 0.59375 -8.46875 L 6.59375 -8.46875 L 6.59375 2.125 Z M 1.265625 1.453125 L 5.9375 1.453125 L 5.9375 -7.78125 L 1.265625 -7.78125 Z M 1.265625 1.453125 "/>
</symbol>
<symbol overflow="visible" id="dQCfyWMv24-1">
<path style="stroke:none;" d="M 3.8125 -7.96875 C 3.207031 -7.96875 2.75 -7.664062 2.4375 -7.0625 C 2.132812 -6.46875 1.984375 -5.566406 1.984375 -4.359375 C 1.984375 -3.160156 2.132812 -2.257812 2.4375 -1.65625 C 2.75 -1.0625 3.207031 -0.765625 3.8125 -0.765625 C 4.425781 -0.765625 4.882812 -1.0625 5.1875 -1.65625 C 5.5 -2.257812 5.65625 -3.160156 5.65625 -4.359375 C 5.65625 -5.566406 5.5 -6.46875 5.1875 -7.0625 C 4.882812 -7.664062 4.425781 -7.96875 3.8125 -7.96875 Z M 3.8125 -8.90625 C 4.789062 -8.90625 5.539062 -8.515625 6.0625 -7.734375 C 6.582031 -6.960938 6.84375 -5.835938 6.84375 -4.359375 C 6.84375 -2.890625 6.582031 -1.765625 6.0625 -0.984375 C 5.539062 -0.210938 4.789062 0.171875 3.8125 0.171875 C 2.832031 0.171875 2.082031 -0.210938 1.5625 -0.984375 C 1.050781 -1.765625 0.796875 -2.890625 0.796875 -4.359375 C 0.796875 -5.835938 1.050781 -6.960938 1.5625 -7.734375 C 2.082031 -8.515625 2.832031 -8.90625 3.8125 -8.90625 Z M 3.8125 -8.90625 "/>
</symbol>
<symbol overflow="visible" id="dQCfyWMv25-0">
<path style="stroke:none;" d="M 0.59375 2.125 L 0.59375 -8.46875 L 6.59375 -8.46875 L 6.59375 2.125 Z M 1.265625 1.453125 L 5.9375 1.453125 L 5.9375 -7.78125 L 1.265625 -7.78125 Z M 1.265625 1.453125 "/>
</symbol>
<symbol overflow="visible" id="dQCfyWMv25-1">
<path style="stroke:none;" d="M 1.171875 -8.75 L 2.359375 -8.75 L 2.359375 0 L 1.171875 0 Z M 1.171875 -8.75 "/>
</symbol>
<symbol overflow="visible" id="dQCfyWMv25-2">
<path style="stroke:none;" d="M 1.40625 -1.484375 L 2.640625 -1.484375 L 2.640625 0 L 1.40625 0 Z M 1.40625 -6.203125 L 2.640625 -6.203125 L 2.640625 -4.71875 L 1.40625 -4.71875 Z M 1.40625 -6.203125 "/>
</symbol>
<symbol overflow="visible" id="dQCfyWMv25-3">
<path style="stroke:none;" d="M 1.484375 -1 L 3.421875 -1 L 3.421875 -7.671875 L 1.3125 -7.25 L 1.3125 -8.328125 L 3.40625 -8.75 L 4.59375 -8.75 L 4.59375 -1 L 6.53125 -1 L 6.53125 0 L 1.484375 0 Z M 1.484375 -1 "/>
</symbol>
<symbol overflow="visible" id="dQCfyWMv26-0">
<path style="stroke:none;" d="M 0.59375 2.125 L 0.59375 -8.46875 L 6.59375 -8.46875 L 6.59375 2.125 Z M 1.265625 1.453125 L 5.9375 1.453125 L 5.9375 -7.78125 L 1.265625 -7.78125 Z M 1.265625 1.453125 "/>
</symbol>
<symbol overflow="visible" id="dQCfyWMv26-1">
<path style="stroke:none;" d="M 2.359375 -7.78125 L 2.359375 -0.96875 L 3.796875 -0.96875 C 5.003906 -0.96875 5.882812 -1.238281 6.4375 -1.78125 C 7 -2.332031 7.28125 -3.203125 7.28125 -4.390625 C 7.28125 -5.554688 7 -6.410156 6.4375 -6.953125 C 5.882812 -7.503906 5.003906 -7.78125 3.796875 -7.78125 Z M 1.171875 -8.75 L 3.609375 -8.75 C 5.304688 -8.75 6.550781 -8.394531 7.34375 -7.6875 C 8.132812 -6.988281 8.53125 -5.890625 8.53125 -4.390625 C 8.53125 -2.878906 8.128906 -1.769531 7.328125 -1.0625 C 6.535156 -0.351562 5.296875 0 3.609375 0 L 1.171875 0 Z M 1.171875 -8.75 "/>
</symbol>
<symbol overflow="visible" id="dQCfyWMv27-0">
<path style="stroke:none;" d="M 0.59375 2.125 L 0.59375 -8.46875 L 6.59375 -8.46875 L 6.59375 2.125 Z M 1.265625 1.453125 L 5.9375 1.453125 L 5.9375 -7.78125 L 1.265625 -7.78125 Z M 1.265625 1.453125 "/>
</symbol>
<symbol overflow="visible" id="dQCfyWMv27-1">
<path style="stroke:none;" d=""/>
</symbol>
</g>
</defs>
<g id="surface1">
<rect x="0" y="0" width="600" height="450" style="fill:rgb(100%,100%,100%);fill-opacity:1;stroke:none;"/>
<path style=" stroke:none;fill-rule:nonzero;fill:rgb(100%,100%,100%);fill-opacity:1;" d="M 102.75 402 L 588 402 L 588 29.25 L 102.75 29.25 Z M 102.75 402 "/>
<path style="fill:none;stroke-width:1;stroke-linecap:butt;stroke-linejoin:miter;stroke:rgb(0%,0%,0%);stroke-opacity:0.12;stroke-miterlimit:10;" d="M 166.411458 536 L 166.411458 39 " transform="matrix(0.75,0,0,0.75,0,0)"/>
<path style="fill:none;stroke-width:1;stroke-linecap:butt;stroke-linejoin:miter;stroke:rgb(0%,0%,0%);stroke-opacity:0.12;stroke-miterlimit:10;" d="M 460.5 536 L 460.5 39 " transform="matrix(0.75,0,0,0.75,0,0)"/>
<path style="fill:none;stroke-width:1;stroke-linecap:butt;stroke-linejoin:miter;stroke:rgb(0%,0%,0%);stroke-opacity:0.12;stroke-miterlimit:10;" d="M 754.588542 536 L 754.588542 39 " transform="matrix(0.75,0,0,0.75,0,0)"/>
<path style="fill:none;stroke-width:1;stroke-linecap:butt;stroke-linejoin:miter;stroke:rgb(0%,0%,0%);stroke-opacity:0.12;stroke-miterlimit:10;" d="M 137 520.963542 L 784 520.963542 " transform="matrix(0.75,0,0,0.75,0,0)"/>
<path style="fill:none;stroke-width:1;stroke-linecap:butt;stroke-linejoin:miter;stroke:rgb(0%,0%,0%);stroke-opacity:0.12;stroke-miterlimit:10;" d="M 137 422.067708 L 784 422.067708 " transform="matrix(0.75,0,0,0.75,0,0)"/>
<path style="fill:none;stroke-width:1;stroke-linecap:butt;stroke-linejoin:miter;stroke:rgb(0%,0%,0%);stroke-opacity:0.12;stroke-miterlimit:10;" d="M 137 323.171875 L 784 323.171875 " transform="matrix(0.75,0,0,0.75,0,0)"/>
<path style="fill:none;stroke-width:1;stroke-linecap:butt;stroke-linejoin:miter;stroke:rgb(0%,0%,0%);stroke-opacity:0.12;stroke-miterlimit:10;" d="M 137 224.276042 L 784 224.276042 " transform="matrix(0.75,0,0,0.75,0,0)"/>
<path style="fill:none;stroke-width:1;stroke-linecap:butt;stroke-linejoin:miter;stroke:rgb(0%,0%,0%);stroke-opacity:0.12;stroke-miterlimit:10;" d="M 137 125.385417 L 784 125.385417 " transform="matrix(0.75,0,0,0.75,0,0)"/>
<g style="fill:rgb(0%,0%,0%);fill-opacity:1;">
  <use xlink:href="#dQCfyWMv0-1" x="331.175781" y="436.109375"/>
</g>
<g style="fill:rgb(0%,0%,0%);fill-opacity:1;">
  <use xlink:href="#dQCfyWMv1-1" x="338.503906" y="436.109375"/>
</g>
<g style="fill:rgb(0%,0%,0%);fill-opacity:1;">
  <use xlink:href="#dQCfyWMv1-2" x="341.839844" y="436.109375"/>
</g>
<g style="fill:rgb(0%,0%,0%);fill-opacity:1;">
  <use xlink:href="#dQCfyWMv2-1" x="353.527344" y="436.109375"/>
</g>
<g style="fill:rgb(0%,0%,0%);fill-opacity:1;">
  <use xlink:href="#dQCfyWMv3-1" x="121.386719" y="419.890625"/>
</g>
<g style="fill:rgb(0%,0%,0%);fill-opacity:1;">
  <use xlink:href="#dQCfyWMv1-3" x="338.070312" y="419.890625"/>
</g>
<g style="fill:rgb(0%,0%,0%);fill-opacity:1;">
  <use xlink:href="#dQCfyWMv0-2" x="345.707031" y="419.890625"/>
</g>
<g style="fill:rgb(0%,0%,0%);fill-opacity:1;">
  <use xlink:href="#dQCfyWMv4-1" x="554.625" y="419.890625"/>
</g>
<g style="fill:rgb(0%,0%,0%);fill-opacity:1;">
  <use xlink:href="#dQCfyWMv5-1" x="562.261719" y="419.890625"/>
</g>
<g style="fill:rgb(0%,0%,0%);fill-opacity:1;">
  <use xlink:href="#dQCfyWMv4-2" x="569.894531" y="419.890625"/>
</g>
<g style="fill:rgb(0%,0%,0%);fill-opacity:1;">
  <use xlink:href="#dQCfyWMv6-1" x="22.644531" y="284.21875"/>
</g>
<g style="fill:rgb(0%,0%,0%);fill-opacity:1;">
  <use xlink:href="#dQCfyWMv7-1" x="22.644531" y="274.773438"/>
</g>
<g style="fill:rgb(0%,0%,0%);fill-opacity:1;">
  <use xlink:href="#dQCfyWMv8-1" x="22.644531" y="267.15625"/>
</g>
<g style="fill:rgb(0%,0%,0%);fill-opacity:1;">
  <use xlink:href="#dQCfyWMv8-2" x="22.644531" y="260.90625"/>
</g>
<g style="fill:rgb(0%,0%,0%);fill-opacity:1;">
  <use xlink:href="#dQCfyWMv6-2" x="22.644531" y="253.523438"/>
</g>
<g style="fill:rgb(0%,0%,0%);fill-opacity:1;">
  <use xlink:href="#dQCfyWMv7-2" x="22.644531" y="248.589844"/>
</g>
<g style="fill:rgb(0%,0%,0%);fill-opacity:1;">
  <use xlink:href="#dQCfyWMv8-3" x="22.644531" y="241.488281"/>
</g>
<g style="fill:rgb(0%,0%,0%);fill-opacity:1;">
  <use xlink:href="#dQCfyWMv6-3" x="22.644531" y="234.132812"/>
</g>
<g style="fill:rgb(0%,0%,0%);fill-opacity:1;">
  <use xlink:href="#dQCfyWMv6-4" x="22.644531" y="229.429688"/>
</g>
<g style="fill:rgb(0%,0%,0%);fill-opacity:1;">
  <use xlink:href="#dQCfyWMv6-5" x="22.644531" y="222.046875"/>
</g>
<g style="fill:rgb(0%,0%,0%);fill-opacity:1;">
  <use xlink:href="#dQCfyWMv8-4" x="22.644531" y="214.429688"/>
</g>
<g style="fill:rgb(0%,0%,0%);fill-opacity:1;">
  <use xlink:href="#dQCfyWMv7-3" x="22.644531" y="210.617187"/>
</g>
<g style="fill:rgb(0%,0%,0%);fill-opacity:1;">
  <use xlink:href="#dQCfyWMv8-4" x="22.644531" y="206.570312"/>
</g>
<g style="fill:rgb(0%,0%,0%);fill-opacity:1;">
  <use xlink:href="#dQCfyWMv7-4" x="22.644531" y="202.757812"/>
</g>
<g style="fill:rgb(0%,0%,0%);fill-opacity:1;">
  <use xlink:href="#dQCfyWMv8-5" x="22.644531" y="195.523437"/>
</g>
<g style="fill:rgb(0%,0%,0%);fill-opacity:1;">
  <use xlink:href="#dQCfyWMv9-1" x="22.644531" y="190.585938"/>
</g>
<g style="fill:rgb(0%,0%,0%);fill-opacity:1;">
  <use xlink:href="#dQCfyWMv9-2" x="22.644531" y="183.203125"/>
</g>
<g style="fill:rgb(0%,0%,0%);fill-opacity:1;">
  <use xlink:href="#dQCfyWMv10-1" x="22.644531" y="175.585938"/>
</g>
<g style="fill:rgb(0%,0%,0%);fill-opacity:1;">
  <use xlink:href="#dQCfyWMv7-5" x="22.644531" y="172.253906"/>
</g>
<g style="fill:rgb(0%,0%,0%);fill-opacity:1;">
  <use xlink:href="#dQCfyWMv6-3" x="22.644531" y="165.65625"/>
</g>
<g style="fill:rgb(0%,0%,0%);fill-opacity:1;">
  <use xlink:href="#dQCfyWMv9-1" x="22.644531" y="160.949219"/>
</g>
<g style="fill:rgb(0%,0%,0%);fill-opacity:1;">
  <use xlink:href="#dQCfyWMv11-1" x="22.644531" y="153.566406"/>
</g>
<g style="fill:rgb(0%,0%,0%);fill-opacity:1;">
  <use xlink:href="#dQCfyWMv3-2" x="29.703125" y="394.875"/>
</g>
<g style="fill:rgb(0%,0%,0%);fill-opacity:1;">
  <use xlink:href="#dQCfyWMv12-1" x="34.03125" y="394.875"/>
</g>
<g style="fill:rgb(0%,0%,0%);fill-opacity:1;">
  <use xlink:href="#dQCfyWMv12-2" x="41.664062" y="394.875"/>
</g>
<g style="fill:rgb(0%,0%,0%);fill-opacity:1;">
  <use xlink:href="#dQCfyWMv12-3" x="45.480469" y="394.875"/>
</g>
<g style="fill:rgb(0%,0%,0%);fill-opacity:1;">
  <use xlink:href="#dQCfyWMv13-1" x="53.113281" y="394.875"/>
</g>
<g style="fill:rgb(0%,0%,0%);fill-opacity:1;">
  <use xlink:href="#dQCfyWMv13-2" x="60.75" y="394.875"/>
</g>
<g style="fill:rgb(0%,0%,0%);fill-opacity:1;">
  <use xlink:href="#dQCfyWMv13-3" x="70.804688" y="394.875"/>
</g>
<g style="fill:rgb(0%,0%,0%);fill-opacity:1;">
  <use xlink:href="#dQCfyWMv3-1" x="78.4375" y="394.875"/>
</g>
<g style="fill:rgb(0%,0%,0%);fill-opacity:1;">
  <use xlink:href="#dQCfyWMv13-4" x="86.074219" y="394.875"/>
</g>
<g style="fill:rgb(0%,0%,0%);fill-opacity:1;">
  <use xlink:href="#dQCfyWMv14-1" x="90.882812" y="394.875"/>
</g>
<g style="fill:rgb(0%,0%,0%);fill-opacity:1;">
  <use xlink:href="#dQCfyWMv15-1" x="29.703125" y="320.703125"/>
</g>
<g style="fill:rgb(0%,0%,0%);fill-opacity:1;">
  <use xlink:href="#dQCfyWMv16-1" x="34.03125" y="320.703125"/>
</g>
<g style="fill:rgb(0%,0%,0%);fill-opacity:1;">
  <use xlink:href="#dQCfyWMv16-2" x="41.664062" y="320.703125"/>
</g>
<g style="fill:rgb(0%,0%,0%);fill-opacity:1;">
  <use xlink:href="#dQCfyWMv16-3" x="45.480469" y="320.703125"/>
</g>
<g style="fill:rgb(0%,0%,0%);fill-opacity:1;">
  <use xlink:href="#dQCfyWMv17-1" x="53.113281" y="320.703125"/>
</g>
<g style="fill:rgb(0%,0%,0%);fill-opacity:1;">
  <use xlink:href="#dQCfyWMv17-2" x="60.75" y="320.703125"/>
</g>
<g style="fill:rgb(0%,0%,0%);fill-opacity:1;">
  <use xlink:href="#dQCfyWMv17-3" x="70.804688" y="320.703125"/>
</g>
<g style="fill:rgb(0%,0%,0%);fill-opacity:1;">
  <use xlink:href="#dQCfyWMv15-2" x="78.4375" y="320.703125"/>
</g>
<g style="fill:rgb(0%,0%,0%);fill-opacity:1;">
  <use xlink:href="#dQCfyWMv17-4" x="86.074219" y="320.703125"/>
</g>
<g style="fill:rgb(0%,0%,0%);fill-opacity:1;">
  <use xlink:href="#dQCfyWMv18-1" x="90.882812" y="320.703125"/>
</g>
<g style="fill:rgb(0%,0%,0%);fill-opacity:1;">
  <use xlink:href="#dQCfyWMv3-2" x="29.433594" y="246.535156"/>
</g>
<g style="fill:rgb(0%,0%,0%);fill-opacity:1;">
  <use xlink:href="#dQCfyWMv13-5" x="33.761719" y="246.535156"/>
</g>
<g style="fill:rgb(0%,0%,0%);fill-opacity:1;">
  <use xlink:href="#dQCfyWMv19-1" x="41.394531" y="246.535156"/>
</g>
<g style="fill:rgb(0%,0%,0%);fill-opacity:1;">
  <use xlink:href="#dQCfyWMv12-4" x="45.210938" y="246.535156"/>
</g>
<g style="fill:rgb(0%,0%,0%);fill-opacity:1;">
  <use xlink:href="#dQCfyWMv3-1" x="52.84375" y="246.535156"/>
</g>
<g style="fill:rgb(0%,0%,0%);fill-opacity:1;">
  <use xlink:href="#dQCfyWMv13-2" x="60.480469" y="246.535156"/>
</g>
<g style="fill:rgb(0%,0%,0%);fill-opacity:1;">
  <use xlink:href="#dQCfyWMv3-3" x="70.535156" y="246.535156"/>
</g>
<g style="fill:rgb(0%,0%,0%);fill-opacity:1;">
  <use xlink:href="#dQCfyWMv14-2" x="78.171875" y="246.535156"/>
</g>
<g style="fill:rgb(0%,0%,0%);fill-opacity:1;">
  <use xlink:href="#dQCfyWMv3-4" x="85.804688" y="246.535156"/>
</g>
<g style="fill:rgb(0%,0%,0%);fill-opacity:1;">
  <use xlink:href="#dQCfyWMv13-6" x="90.613281" y="246.535156"/>
</g>
<g style="fill:rgb(0%,0%,0%);fill-opacity:1;">
  <use xlink:href="#dQCfyWMv20-1" x="88.453125" y="172.363281"/>
</g>
<g style="fill:rgb(0%,0%,0%);fill-opacity:1;">
  <use xlink:href="#dQCfyWMv20-2" x="33.761719" y="98.191406"/>
</g>
<g style="fill:rgb(0%,0%,0%);fill-opacity:1;">
  <use xlink:href="#dQCfyWMv21-1" x="41.394531" y="98.191406"/>
</g>
<g style="fill:rgb(0%,0%,0%);fill-opacity:1;">
  <use xlink:href="#dQCfyWMv22-1" x="45.210938" y="98.191406"/>
</g>
<g style="fill:rgb(0%,0%,0%);fill-opacity:1;">
  <use xlink:href="#dQCfyWMv23-1" x="52.84375" y="98.191406"/>
</g>
<g style="fill:rgb(0%,0%,0%);fill-opacity:1;">
  <use xlink:href="#dQCfyWMv20-3" x="60.480469" y="98.191406"/>
</g>
<g style="fill:rgb(0%,0%,0%);fill-opacity:1;">
  <use xlink:href="#dQCfyWMv23-2" x="70.535156" y="98.191406"/>
</g>
<g style="fill:rgb(0%,0%,0%);fill-opacity:1;">
  <use xlink:href="#dQCfyWMv24-1" x="78.171875" y="98.191406"/>
</g>
<g style="fill:rgb(0%,0%,0%);fill-opacity:1;">
  <use xlink:href="#dQCfyWMv23-3" x="85.804688" y="98.191406"/>
</g>
<g style="fill:rgb(0%,0%,0%);fill-opacity:1;">
  <use xlink:href="#dQCfyWMv20-4" x="90.613281" y="98.191406"/>
</g>
<g style="fill:rgb(0%,0%,0%);fill-opacity:1;">
  <use xlink:href="#dQCfyWMv25-1" x="331.863281" y="23.421875"/>
</g>
<g style="fill:rgb(0%,0%,0%);fill-opacity:1;">
  <use xlink:href="#dQCfyWMv26-1" x="335.402344" y="23.421875"/>
</g>
<g style="fill:rgb(0%,0%,0%);fill-opacity:1;">
  <use xlink:href="#dQCfyWMv25-2" x="344.640625" y="23.421875"/>
</g>
<g style="fill:rgb(0%,0%,0%);fill-opacity:1;">
  <use xlink:href="#dQCfyWMv27-1" x="348.683594" y="23.421875"/>
</g>
<g style="fill:rgb(0%,0%,0%);fill-opacity:1;">
  <use xlink:href="#dQCfyWMv25-3" x="352.5" y="23.421875"/>
</g>
<path style="fill:none;stroke-width:1.5;stroke-linecap:butt;stroke-linejoin:miter;stroke:rgb(0%,44.705883%,69.803923%);stroke-opacity:1;stroke-miterlimit:10;" d="M 166.411458 224.276042 L 654.598958 224.276042 L 660.484375 224.270833 L 666.364583 224.265625 L 672.244792 224.255208 L 678.125 224.234375 L 684.010417 224.197917 L 689.890625 224.135417 L 695.770833 224.020833 L 701.65625 223.8125 L 707.536458 223.4375 L 713.416667 222.760417 L 719.302083 221.536458 L 725.182292 219.322917 L 731.0625 215.317708 L 736.947917 208.078125 L 742.828125 195 L 748.708333 171.34375 L 754.588542 128.578125 " transform="matrix(0.75,0,0,0.75,0,0)"/>
<path style="fill:none;stroke-width:1.5;stroke-linecap:butt;stroke-linejoin:miter;stroke:rgb(0%,44.705883%,69.803923%);stroke-opacity:1;stroke-miterlimit:10;" d="M 166.411458 224.276042 L 648.71875 224.276042 L 654.598958 224.270833 L 660.484375 224.265625 L 666.364583 224.255208 L 672.244792 224.234375 L 678.125 224.203125 L 684.010417 224.145833 L 689.890625 224.036458 L 695.770833 223.84375 L 701.65625 223.489583 L 707.536458 222.848958 L 713.416667 221.697917 L 719.302083 219.614583 L 725.182292 215.854167 L 731.0625 209.046875 L 736.947917 196.739583 L 742.828125 174.510417 L 748.708333 134.291667 L 754.588542 61.588542 " transform="matrix(0.75,0,0,0.75,0,0)"/>
<path style="fill:none;stroke-width:1.5;stroke-linecap:butt;stroke-linejoin:miter;stroke:rgb(0%,44.705883%,69.803923%);stroke-opacity:1;stroke-miterlimit:10;" d="M 166.411458 224.276042 L 625.192708 224.276042 L 631.072917 224.28125 L 642.838542 224.28125 L 654.598958 224.291667 L 660.484375 224.302083 L 666.364583 224.317708 L 672.244792 224.348958 L 678.125 224.411458 L 684.010417 224.515625 L 689.890625 224.708333 L 695.770833 225.052083 L 701.65625 225.677083 L 707.536458 226.8125 L 713.416667 228.859375 L 719.302083 232.5625 L 725.182292 239.25 L 731.0625 251.34375 L 736.947917 273.21875 L 742.828125 312.729167 L 748.708333 384.208333 L 754.588542 513.411458 " transform="matrix(0.75,0,0,0.75,0,0)"/>
<path style="fill:none;stroke-width:1.5;stroke-linecap:butt;stroke-linejoin:miter;stroke:rgb(0%,44.705883%,69.803923%);stroke-opacity:1;stroke-miterlimit:10;" d="M 166.411458 224.276042 L 666.364583 224.276042 L 672.244792 224.270833 L 678.125 224.270833 L 684.010417 224.260417 L 689.890625 224.25 L 695.770833 224.223958 L 701.65625 224.182292 L 707.536458 224.104167 L 713.416667 223.963542 L 719.302083 223.713542 L 725.182292 223.255208 L 731.0625 222.432292 L 736.947917 220.942708 L 742.828125 218.25 L 748.708333 213.380208 L 754.588542 204.578125 " transform="matrix(0.75,0,0,0.75,0,0)"/>
<path style="fill:none;stroke-width:1;stroke-linecap:butt;stroke-linejoin:miter;stroke:rgb(0%,0%,0%);stroke-opacity:1;stroke-miterlimit:10;" d="M 166.411458 536.5 L 166.411458 542.5 " transform="matrix(0.75,0,0,0.75,0,0)"/>
<path style="fill:none;stroke-width:1;stroke-linecap:butt;stroke-linejoin:miter;stroke:rgb(0%,0%,0%);stroke-opacity:1;stroke-miterlimit:10;" d="M 460.5 536.5 L 460.5 542.5 " transform="matrix(0.75,0,0,0.75,0,0)"/>
<path style="fill:none;stroke-width:1;stroke-linecap:butt;stroke-linejoin:miter;stroke:rgb(0%,0%,0%);stroke-opacity:1;stroke-miterlimit:10;" d="M 754.588542 536.5 L 754.588542 542.5 " transform="matrix(0.75,0,0,0.75,0,0)"/>
<path style="fill:none;stroke-width:1;stroke-linecap:butt;stroke-linejoin:miter;stroke:rgb(0%,0%,0%);stroke-opacity:1;stroke-miterlimit:10;" d="M 136.5 520.963542 L 130.5 520.963542 " transform="matrix(0.75,0,0,0.75,0,0)"/>
<path style="fill:none;stroke-width:1;stroke-linecap:butt;stroke-linejoin:miter;stroke:rgb(0%,0%,0%);stroke-opacity:1;stroke-miterlimit:10;" d="M 136.5 422.067708 L 130.5 422.067708 " transform="matrix(0.75,0,0,0.75,0,0)"/>
<path style="fill:none;stroke-width:1;stroke-linecap:butt;stroke-linejoin:miter;stroke:rgb(0%,0%,0%);stroke-opacity:1;stroke-miterlimit:10;" d="M 136.5 323.171875 L 130.5 323.171875 " transform="matrix(0.75,0,0,0.75,0,0)"/>
<path style="fill:none;stroke-width:1;stroke-linecap:butt;stroke-linejoin:miter;stroke:rgb(0%,0%,0%);stroke-opacity:1;stroke-miterlimit:10;" d="M 136.5 224.276042 L 130.5 224.276042 " transform="matrix(0.75,0,0,0.75,0,0)"/>
<path style="fill:none;stroke-width:1;stroke-linecap:butt;stroke-linejoin:miter;stroke:rgb(0%,0%,0%);stroke-opacity:1;stroke-miterlimit:10;" d="M 136.5 125.385417 L 130.5 125.385417 " transform="matrix(0.75,0,0,0.75,0,0)"/>
<path style="fill:none;stroke-width:1;stroke-linecap:butt;stroke-linejoin:miter;stroke:rgb(0%,0%,0%);stroke-opacity:1;stroke-miterlimit:10;" d="M 136.5 536 L 784.5 536 " transform="matrix(0.75,0,0,0.75,0,0)"/>
<path style="fill:none;stroke-width:1;stroke-linecap:butt;stroke-linejoin:miter;stroke:rgb(0%,0%,0%);stroke-opacity:1;stroke-miterlimit:10;" d="M 137 536.5 L 137 38.5 " transform="matrix(0.75,0,0,0.75,0,0)"/>
<path style="fill:none;stroke-width:1;stroke-linecap:butt;stroke-linejoin:miter;stroke:rgb(0%,0%,0%);stroke-opacity:1;stroke-miterlimit:10;" d="M 136.5 39 L 784.5 39 " transform="matrix(0.75,0,0,0.75,0,0)"/>
<path style="fill:none;stroke-width:1;stroke-linecap:butt;stroke-linejoin:miter;stroke:rgb(0%,0%,0%);stroke-opacity:1;stroke-miterlimit:10;" d="M 784 536.5 L 784 38.5 " transform="matrix(0.75,0,0,0.75,0,0)"/>
</g>
</svg>
